<?xml version="1.0" standalone="no"?>
<!DOCTYPE svg PUBLIC "-//W3C//DTD SVG 1.1//EN" "http://www.w3.org/Graphics/SVG/1.1/DTD/svg11.dtd" >
<svg xmlns="http://www.w3.org/2000/svg">
<metadata>Generated by IcoMoon</metadata>
<defs>
<font id="iconsax" horiz-adv-x="1024">
<font-face units-per-em="1024" ascent="960" descent="-64" />
<missing-glyph horiz-adv-x="1024" />
<glyph unicode="&#x20;" horiz-adv-x="512" d="" />
<glyph unicode="&#xe900;" d="M768 155.307h-32.427c-34.133 0-66.56-13.225-90.453-37.12l-72.96-72.105c-33.28-32.855-87.467-32.855-120.747 0l-72.96 72.105c-23.893 23.895-56.745 37.12-90.453 37.12h-32c-70.827 0-128 56.745-128 126.72v465.495c0 69.973 57.173 126.718 128 126.718h512c70.827 0 128-56.745 128-126.718v-465.495c0-69.547-57.173-126.72-128-126.72z" />
<glyph unicode="&#xe901;" d="M442.88 340.907h-114.347c-18.773 0-36.265 8.96-47.36 24.32-10.665 14.507-13.225 32.425-8.105 49.493 14.933 45.653 51.625 70.402 84.053 92.589 34.133 23.038 53.333 37.543 53.333 62.291 0 22.187-17.92 40.107-40.105 40.107-22.187 0-40.107-17.92-40.107-40.107 0-17.493-14.505-32-32-32-17.493 0-32 14.507-32 32 0 57.173 46.507 104.107 104.107 104.107s104.105-46.507 104.105-104.107c0-60.16-45.225-90.878-81.493-115.625-22.613-15.36-43.947-29.867-54.613-49.067h104.105c17.495 0 32-14.507 32-32s-14.078-32-31.573-32z" />
<glyph unicode="&#xe902;" d="M684.373 340.905c-17.493 0-32 14.507-32 32v29.44h-83.625c0 0 0 0-0.427 0-20.907 0-40.107 11.093-50.773 29.013-10.667 18.347-10.667 40.962 0 58.882 29.013 49.92 62.72 106.667 93.44 156.16 13.653 21.76 39.68 31.573 64 24.745 24.32-7.253 41.385-29.44 40.96-55.040v-150.187h9.385c17.495 0 32-14.505 32-32 0-17.493-14.505-32-32-32h-8.96v-29.44c0-17.493-14.080-31.573-32-31.573zM652.373 591.358c-25.173-40.96-51.2-84.905-74.665-125.013h74.665v125.013z" />
<glyph unicode="&#xe903;" glyph-name="support-line" d="M512-10.665c-29.867 0-60.16 11.522-82.773 34.135l-72.96 72.105c-18.347 17.92-42.24 27.733-67.84 27.733h-32.427c-88.32 0-160 71.253-160 158.72v465.495c0 87.466 71.68 158.718 160 158.718h512c88.32 0 160-71.252 160-158.718v-465.495c0-87.467-71.68-158.72-160-158.72h-32.427c-25.6 0-49.92-9.813-67.84-27.733l-72.96-72.105c-22.613-22.613-52.905-34.135-82.773-34.135zM256 842.668c-52.907 0-96-42.666-96-94.718v-465.495c0-52.48 43.093-94.72 96-94.72h32.427c42.665 0 82.773-16.638 113.065-46.505l72.96-72.109c20.907-20.48 54.615-20.48 75.52 0l72.96 72.109c30.295 29.867 70.4 46.505 113.067 46.505h32c52.907 0 96 42.665 96 94.72v465.495c0 52.479-43.093 94.718-96 94.718h-512zM442.89 340.905h-114.347c-18.773 0-36.265 8.962-47.36 24.322-10.665 14.507-13.227 32.423-8.107 49.491 14.935 45.653 51.627 70.4 84.055 92.587 34.133 23.040 53.333 37.545 53.333 62.293 0 22.185-17.92 40.109-40.107 40.109-22.185 0-40.105-17.924-40.105-40.109 0-17.495-14.507-32-32-32s-32 14.505-32 32c0 57.173 46.505 104.109 104.105 104.109s104.107-46.509 104.107-104.109c0-60.16-45.225-90.88-81.493-115.625-22.613-15.36-43.947-29.867-54.615-49.067h104.107c17.495 0 32-14.507 32-32 0-17.495-14.080-32-31.573-32zM684.369 340.905c-17.495 0-32 14.507-32 32v29.444h-83.627c0 0 0 0-0.425 0-20.907 0-40.107 11.089-50.775 29.009-10.665 18.347-10.665 40.962 0 58.882 29.015 49.92 62.72 106.667 93.44 156.16 13.655 21.76 39.68 31.573 64 24.745 24.32-7.253 41.387-29.442 40.96-55.042v-150.181h9.387c17.493 0 32-14.507 32-32 0-17.495-14.507-32-32-32h-8.96v-29.444c0-17.493-14.080-31.573-32-31.573zM652.369 591.358c-25.175-40.96-51.2-84.903-74.667-125.009h74.667v125.009z" />
<glyph unicode="&#xe904;" d="M512 21.333c235.64 0 426.665 191.025 426.665 426.667s-191.025 426.667-426.665 426.667c-235.642 0-426.667-191.024-426.667-426.667s191.025-426.667 426.667-426.667z" />
<glyph unicode="&#xe905;" d="M682.665 480h-138.665v138.667c0 17.493-14.507 32-32 32-17.495 0-32-14.507-32-32v-138.667h-138.667c-17.493 0-32-14.507-32-32s14.507-32 32-32h138.667v-138.667c0-17.493 14.505-32 32-32 17.493 0 32 14.507 32 32v138.667h138.665c17.495 0 32 14.507 32 32s-14.505 32-32 32z" />
<glyph unicode="&#xe906;" d="M512 21.335c235.64 0 426.665 191.025 426.665 426.667s-191.025 426.666-426.665 426.666c-235.642 0-426.667-191.024-426.667-426.666s191.025-426.667 426.667-426.667z" />
<glyph unicode="&#xe907;" d="M682.665 480.002h-138.665v138.665c0 17.495-14.507 32-32 32-17.495 0-32-14.505-32-32v-138.665h-138.667c-17.493 0-32-14.507-32-32 0-17.495 14.507-32 32-32h138.667v-138.667c0-17.493 14.505-32 32-32 17.493 0 32 14.507 32 32v138.667h138.665c17.495 0 32 14.505 32 32 0 17.493-14.505 32-32 32z" />
<glyph unicode="&#xe908;" glyph-name="add-circle-line" d="M512-10.665c-253.013 0-458.667 205.655-458.667 458.667s205.654 458.666 458.667 458.666c253.013 0 458.667-205.654 458.667-458.666s-205.655-458.667-458.667-458.667zM512 842.668c-217.6 0-394.667-177.066-394.667-394.666s177.067-394.667 394.667-394.667c217.6 0 394.667 177.067 394.667 394.667s-177.067 394.666-394.667 394.666zM682.667 416h-341.335c-17.493 0-32 14.507-32 32s14.507 32 32 32h341.335c17.493 0 32-14.507 32-32s-14.507-32-32-32zM512 245.335c-17.493 0-32 14.507-32 32v341.333c0 17.495 14.507 32 32 32s32-14.505 32-32v-341.333c0-17.493-14.507-32-32-32z" />
<glyph unicode="&#xe909;" glyph-name="add-line" d="M768 416h-512c-17.493 0-32 14.507-32 32s14.507 32 32 32h512c17.493 0 32-14.507 32-32s-14.507-32-32-32zM512 160c-17.493 0-32 14.507-32 32v512c0 17.493 14.507 32 32 32s32-14.507 32-32v-512c0-17.493-14.507-32-32-32z" />
<glyph unicode="&#xe90a;" d="M832 534.613v-385.28c0-85.333-21.333-128-128-128h-384c-106.667 0-128 42.667-128 128v385.28c6.827-0.853 14.080-1.28 21.333-1.28h597.335c7.253 0 14.505 0.427 21.333 1.28z" />
<glyph unicode="&#xe90b;" d="M938.665 746.667v-85.335c0-78.080-35.413-120.32-106.665-126.72-6.827-0.853-14.080-1.28-21.335-1.28h-597.333c-7.253 0-14.507 0.427-21.333 1.28-71.253 6.4-106.667 48.64-106.667 126.72v85.335c0 85.333 42.667 127.999 128 127.999h597.333c85.335 0 128-42.667 128-127.999z" />
<glyph unicode="&#xe90c;" d="M589.655 330.667h-155.305c-17.495 0-32 14.505-32 32 0 17.493 14.505 32 32 32h155.305c17.495 0 32-14.507 32-32 0-17.495-14.505-32-32-32z" />
<glyph unicode="&#xe90d;" glyph-name="archive-line" d="M704-10.667h-384c-140.8 0-160 76.8-160 160v374.615c0 17.493 14.507 32 32 32s32-14.507 32-32v-374.615c0-74.24 12.8-96 96-96h384c83.2 0 96 21.76 96 96v374.615c0 17.493 14.507 32 32 32s32-14.507 32-32v-374.615c0-83.2-19.2-160-160-160zM810.667 501.333h-597.335c-103.253 0-159.999 56.747-159.999 160v85.335c0 103.253 56.747 159.999 159.999 159.999h597.335c103.253 0 160-56.747 160-159.999v-85.335c0-103.253-56.747-160-160-160zM213.333 842.667c-67.413 0-95.999-28.587-95.999-95.999v-85.335c0-67.413 28.587-96 95.999-96h597.335c67.413 0 96 28.587 96 96v85.335c0 67.413-28.587 95.999-96 95.999h-597.335zM589.655 330.667h-155.305c-17.495 0-32 14.505-32 32 0 17.493 14.505 32 32 32h155.305c17.495 0 32-14.507 32-32 0-17.495-14.505-32-32-32z" />
<glyph unicode="&#xe90e;" d="M512 21.335c235.64 0 426.665 191.025 426.665 426.665 0 235.642-191.025 426.667-426.665 426.667-235.642 0-426.667-191.025-426.667-426.667 0-235.64 191.025-426.665 426.667-426.665z" />
<glyph unicode="&#xe90f;" d="M512.002 319.575c-8.107 0-16.213 2.985-22.613 9.385l-150.615 150.615c-12.373 12.373-12.373 32.853 0 45.225 12.375 12.375 32.855 12.375 45.227 0l128-128 128 128c12.373 12.375 32.853 12.375 45.227 0 12.373-12.373 12.373-32.853 0-45.225l-150.615-150.615c-6.4-6.4-14.505-9.385-22.613-9.385z" />
<glyph unicode="&#xe910;" glyph-name="arrow-circle-down-line" d="M512-10.665c-253.013 0-458.667 205.653-458.667 458.665 0 253.015 205.654 458.667 458.667 458.667s458.667-205.652 458.667-458.667c0-253.013-205.655-458.665-458.667-458.665zM512 842.667c-217.6 0-394.667-177.067-394.667-394.667s177.067-394.665 394.667-394.665c217.6 0 394.667 177.065 394.667 394.665s-177.067 394.667-394.667 394.667zM512.002 319.575c-8.107 0-16.215 2.985-22.615 9.385l-150.613 150.615c-12.373 12.373-12.373 32.853 0 45.225 12.373 12.375 32.853 12.375 45.227 0l128-128 128 128c12.373 12.375 32.853 12.375 45.225 0 12.375-12.373 12.375-32.853 0-45.225l-150.613-150.615c-6.4-6.4-14.507-9.385-22.613-9.385z" />
<glyph unicode="&#xe911;" d="M512 21.335c235.64 0 426.665 191.025 426.665 426.665 0 235.642-191.025 426.667-426.665 426.667-235.642 0-426.667-191.025-426.667-426.667 0-235.64 191.025-426.665 426.667-426.665z" />
<glyph unicode="&#xe912;" d="M565.762 265.387c-8.107 0-16.215 2.987-22.615 9.387l-150.613 150.613c-12.373 12.373-12.373 32.853 0 45.227l150.613 150.613c12.375 12.373 32.855 12.373 45.227 0s12.373-32.853 0-45.227l-128-128 128-128c12.373-12.373 12.373-32.853 0-45.225-5.973-6.4-14.080-9.387-22.613-9.387z" />
<glyph unicode="&#xe913;" glyph-name="arrow-circle-left-line" d="M512-10.665c-253.013 0-458.667 205.653-458.667 458.665 0 253.015 205.654 458.667 458.667 458.667s458.667-205.652 458.667-458.667c0-253.013-205.655-458.665-458.667-458.665zM512 842.667c-217.6 0-394.667-177.067-394.667-394.667s177.067-394.665 394.667-394.665c217.6 0 394.667 177.065 394.667 394.665s-177.067 394.667-394.667 394.667zM565.762 265.387c-8.107 0-16.213 2.987-22.613 9.387l-150.615 150.613c-12.373 12.373-12.373 32.853 0 45.227l150.615 150.613c12.373 12.373 32.853 12.373 45.225 0 12.375-12.373 12.375-32.853 0-45.227l-128-128 128-128c12.375-12.373 12.375-32.853 0-45.225-5.973-6.4-14.080-9.387-22.613-9.387z" />
<glyph unicode="&#xe914;" d="M512 21.335c235.64 0 426.665 191.025 426.665 426.665 0 235.642-191.025 426.667-426.665 426.667-235.642 0-426.667-191.025-426.667-426.667 0-235.64 191.025-426.665 426.667-426.665z" />
<glyph unicode="&#xe915;" d="M458.242 265.387c-8.107 0-16.213 2.987-22.613 9.387-12.375 12.373-12.375 32.853 0 45.225l128 128-128 128c-12.375 12.375-12.375 32.855 0 45.227 12.373 12.373 32.853 12.373 45.225 0l150.615-150.613c12.373-12.375 12.373-32.855 0-45.227l-150.615-150.613c-6.4-6.4-14.505-9.387-22.613-9.387z" />
<glyph unicode="&#xe916;" glyph-name="arrow-circle-right-line" d="M512-10.665c-253.013 0-458.667 205.653-458.667 458.665 0 253.015 205.654 458.667 458.667 458.667s458.667-205.652 458.667-458.667c0-253.013-205.655-458.665-458.667-458.665zM512 842.667c-217.6 0-394.667-177.067-394.667-394.667s177.067-394.665 394.667-394.665c217.6 0 394.667 177.065 394.667 394.665s-177.067 394.667-394.667 394.667zM458.242 265.387c-8.107 0-16.213 2.987-22.613 9.387-12.375 12.373-12.375 32.853 0 45.225l128 128-128 128c-12.375 12.375-12.375 32.855 0 45.227 12.373 12.373 32.853 12.373 45.225 0l150.615-150.613c12.373-12.375 12.373-32.855 0-45.227l-150.615-150.613c-6.4-6.4-14.505-9.387-22.613-9.387z" />
<glyph unicode="&#xe917;" d="M512 21.335c235.64 0 426.665 191.025 426.665 426.665 0 235.642-191.025 426.667-426.665 426.667-235.642 0-426.667-191.025-426.667-426.667 0-235.64 191.025-426.665 426.667-426.665z" />
<glyph unicode="&#xe918;" d="M662.615 362.24c-8.105 0-16.213 2.987-22.613 9.387l-128 128-128-128c-12.373-12.373-32.853-12.373-45.227 0s-12.373 32.853 0 45.227l150.615 150.613c12.373 12.373 32.853 12.373 45.225 0l150.615-150.613c12.373-12.375 12.373-32.855 0-45.227-6.4-6.4-14.507-9.387-22.615-9.387z" />
<glyph unicode="&#xe919;" glyph-name="arrow-circle-up-line" d="M512-10.665c-253.013 0-458.667 205.653-458.667 458.665 0 253.015 205.654 458.667 458.667 458.667s458.667-205.652 458.667-458.667c0-253.013-205.655-458.665-458.667-458.665zM512 842.667c-217.6 0-394.667-177.067-394.667-394.667s177.067-394.665 394.667-394.665c217.6 0 394.667 177.065 394.667 394.665s-177.067 394.667-394.667 394.667zM662.615 362.24c-8.107 0-16.213 2.987-22.613 9.387l-128 128-128-128c-12.375-12.373-32.855-12.373-45.227 0s-12.373 32.853 0 45.227l150.613 150.613c12.375 12.373 32.855 12.373 45.227 0l150.613-150.613c12.375-12.375 12.375-32.855 0-45.227-6.4-6.4-14.505-9.387-22.613-9.387z" />
<glyph unicode="&#xe91a;" d="M660.48 395.52l-161.707 215.467h-239.36c-40.96 0-61.44-49.495-32.425-78.507l221.013-221.013c35.413-35.415 93.013-35.415 128.427 0l84.053 84.053z" />
<glyph unicode="&#xe91b;" d="M764.583 610.987h-265.813l161.707-215.467 136.96 136.96c28.585 29.013 8.105 78.507-32.855 78.507z" />
<glyph unicode="&#xe91c;" glyph-name="arrow-down-line" d="M512 243.2c-29.865 0-59.733 11.52-82.345 34.133l-278.187 278.187c-12.373 12.373-12.373 32.853 0 45.227s32.853 12.373 45.227 0l278.186-278.187c20.48-20.48 53.76-20.48 74.24 0l278.187 278.187c12.373 12.373 32.853 12.373 45.227 0 12.373-12.375 12.373-32.855 0-45.227l-278.187-278.187c-22.613-22.613-52.48-34.133-82.347-34.133z" />
<glyph unicode="&#xe91d;" d="M333.225 874.667h357.12c155.735 0 248.32-92.587 248.32-247.894v-357.12c0-155.305-92.585-247.893-247.893-247.893h-357.547c-155.306-0.427-247.892 92.16-247.892 247.467v357.545c0 155.307 92.587 247.894 247.892 247.894z" />
<glyph unicode="&#xe91e;" d="M233.387 470.613l183.040 183.040c12.373 12.373 32.853 12.373 45.225 0 12.375-12.375 12.375-32.855 0-45.227l-128.425-128.427h434.773c17.493 0 32-14.505 32-32 0-17.493-14.507-32-32-32h-434.773l128.425-128.425c12.375-12.375 12.375-32.855 0-45.227-6.4-6.4-14.505-9.387-22.613-9.387s-16.213 2.987-22.613 9.387l-183.040 183.040c-5.975 5.973-9.387 14.080-9.387 22.613 0 8.535 3.413 16.64 9.387 22.615z" />
<glyph unicode="&#xe91f;" glyph-name="arrow-left-line" d="M408.318 157.015c-8.107 0-16.215 2.985-22.615 9.385l-258.986 258.987c-12.373 12.373-12.373 32.853 0 45.227l258.986 258.985c12.375 12.375 32.855 12.375 45.227 0 12.373-12.373 12.373-32.853 0-45.225l-236.373-236.375 236.373-236.373c12.373-12.373 12.373-32.853 0-45.227-5.973-6.4-14.507-9.385-22.613-9.385zM874.669 416h-718.081c-17.493 0-32 14.507-32 32s14.507 32 32 32h718.081c17.493 0 32-14.507 32-32s-14.507-32-32-32z" />
<glyph unicode="&#xe920;" d="M690.773 874.667h-357.547c-155.306 0-247.892-92.587-247.892-247.892v-357.12c0-155.735 92.587-248.32 247.892-248.32h357.12c155.307 0 247.895 92.585 247.895 247.893v357.547c0.425 155.306-92.16 247.892-247.467 247.892z" />
<glyph unicode="&#xe921;" d="M790.613 470.615l-183.040 183.040c-12.373 12.373-32.853 12.373-45.225 0-12.375-12.375-12.375-32.855 0-45.227l128.425-128.427h-434.773c-17.493 0-32-14.505-32-32 0-17.493 14.507-32 32-32h434.773l-128.425-128.425c-12.375-12.375-12.375-32.855 0-45.227 6.4-6.4 14.505-9.387 22.613-9.387s16.213 2.987 22.613 9.387l183.040 183.040c5.975 5.973 9.387 14.080 9.387 22.613 0 8.535-3.413 16.64-9.387 22.615z" />
<glyph unicode="&#xe922;" glyph-name="arrow-right-line" d="M615.68 157.013c-8.107 0-16.213 2.987-22.613 9.387-12.375 12.373-12.375 32.853 0 45.227l236.373 236.373-236.373 236.373c-12.375 12.375-12.375 32.855 0 45.227 12.373 12.373 32.853 12.373 45.225 0l258.987-258.987c12.373-12.373 12.373-32.853 0-45.225l-258.987-258.987c-6.4-6.4-14.505-9.387-22.613-9.387zM867.413 416h-718.079c-17.493 0-32 14.507-32 32s14.507 32 32 32h718.079c17.495 0 32-14.507 32-32s-14.505-32-32-32z" />
<glyph unicode="&#xe923;" d="M660.48 500.48l-161.707-215.465h-239.36c-40.96 0-61.44 49.493-32.425 78.505l221.013 221.015c35.413 35.413 93.013 35.413 128.427 0l84.053-84.055z" />
<glyph unicode="&#xe924;" d="M764.583 285.015h-265.813l161.707 215.465 136.96-136.96c28.585-29.013 8.105-78.505-32.855-78.505z" />
<glyph unicode="&#xe925;" glyph-name="arrow-up-line" d="M849.92 285.867c-8.105 0-16.213 2.987-22.613 9.387l-278.187 278.185c-20.48 20.48-53.76 20.48-74.24 0l-278.186-278.185c-12.373-12.375-32.853-12.375-45.227 0-12.373 12.373-12.373 32.853 0 45.225l278.187 278.187c45.225 45.227 119.040 45.227 164.693 0l278.187-278.187c12.373-12.373 12.373-32.853 0-45.225-6.4-5.975-14.507-9.387-22.615-9.387z" />
<glyph unicode="&#xe926;" d="M765.865 631.040l-5.973 3.413-59.307 34.135-122.453 70.825c-37.547 21.76-94.72 21.76-132.267 0l-122.453-70.825-59.307-34.56-7.68-4.267c-76.373-51.2-81.493-60.587-81.493-142.933v-196.695c0-82.345 5.12-91.733 83.2-144.213l187.733-108.373c18.775-11.095 42.24-16.215 66.135-16.215 23.465 0 47.36 5.12 66.133 16.215l189.44 109.653c76.373 51.2 81.493 60.587 81.493 142.933v196.695c0 82.345-5.12 91.733-83.2 144.213z" />
<glyph unicode="&#xe927;" d="M264.105 634.025l59.305 34.56 116.907 67.415 5.547 3.413c37.545 21.76 94.72 21.76 132.265 0l5.547-3.413 176.213-101.547v91.307c0 95.999-52.905 148.906-148.905 148.906h-198.4c-96 0-148.48-52.907-148.48-148.906v-91.735z" />
<glyph unicode="&#xe928;" d="M633.173 390.827l-26.453-32.427c-4.267-4.693-7.255-14.080-6.827-20.48l2.56-41.813c1.707-25.6-16.64-38.827-40.533-29.44l-38.827 15.36c-5.973 2.133-16.213 2.133-22.187 0l-38.825-15.36c-23.895-9.387-42.24 3.84-40.535 29.44l2.56 41.813c0.427 6.4-2.56 15.787-6.825 20.48l-26.455 32.427c-16.64 19.627-9.385 41.387 15.36 47.787l40.535 10.24c6.4 1.705 14.080 7.68 17.493 13.225l22.613 34.987c14.080 21.76 36.267 21.76 50.347 0l22.613-34.987c3.415-5.545 11.095-11.52 17.495-13.225l40.533-10.24c24.747-6.4 32-28.16 15.36-47.787z" />
<glyph unicode="&#xe929;" glyph-name="award-line" d="M512-10.665c-25.6 0-50.773 5.973-71.253 17.493l-201.813 116.48c-83.628 56.32-89.174 66.56-89.174 154.88v211.627c0 88.32 5.547 98.56 87.467 153.6l203.947 117.76c40.533 23.466 101.545 23.466 142.080 0l201.813-116.48c83.627-56.32 89.173-66.56 89.173-154.88v-211.627c0-88.32-5.545-98.56-87.465-153.6l-203.947-117.76c-20.053-11.947-45.653-17.493-70.827-17.493zM512 714.667c-14.505 0-29.013-2.987-39.253-8.96l-201.813-116.48c-57.175-38.827-57.175-38.827-57.175-99.413v-211.627c0-60.587 0-60.587 59.307-100.693l200.107-115.2c20.48-11.947 57.6-11.947 78.080 0l201.813 116.48c57.173 38.825 57.173 38.825 57.173 99.413v211.627c0 60.585 0 60.585-59.305 100.693l-200.107 115.2c-9.813 5.973-24.32 8.96-38.827 8.96zM746.667 602.453c-17.495 0-32 14.507-32 32v112.213c0 67.414-28.587 96.001-96 96.001h-213.335c-67.413 0-96-28.587-96-96.001v-109.225c0-17.495-14.505-32-32-32-17.493 0-32 14.080-32 32v109.225c0 103.254 56.747 160.001 160 160.001h213.335c103.253 0 160-56.747 160-160.001v-112.213c0-17.493-14.507-32-32-32zM581.547 207.787c-8.96 0-18.347 1.705-27.735 5.545l-41.813 16.215-41.813-16.64c-22.615-8.96-45.655-6.827-62.72 5.545-17.067 12.375-26.027 33.707-24.747 58.027l2.56 44.8-28.587 34.56c-15.36 19.2-20.48 41.387-13.653 61.867 6.4 20.053 23.893 35.413 47.36 41.385l43.52 11.095 24.32 37.973c26.027 40.96 81.92 40.96 107.947 0l24.32-37.973 43.52-11.095c23.465-5.973 40.96-21.333 47.36-41.385 6.4-20.055 1.28-42.667-14.080-61.44l-28.587-34.56 2.56-44.8c1.28-24.32-7.68-45.227-24.747-58.027-10.24-7.253-22.185-11.093-34.985-11.093zM406.187 396.8l28.585-34.56c9.815-11.52 15.36-29.867 14.507-44.8l-2.56-44.8 41.813 16.64c14.080 5.547 32.855 5.547 46.935 0l41.813-16.64-2.56 44.8c-0.853 14.933 4.693 32.853 14.507 44.8l28.585 34.56-43.52 11.093c-14.505 3.84-29.865 14.935-37.973 27.307l-23.893 37.547-24.32-37.547c-8.107-12.8-23.467-23.893-37.975-27.733l-43.945-10.667z" />
<glyph unicode="&#xe92a;" d="M512 733.867v-683.947c-7.255 0-14.935 1.28-20.907 4.693l-1.707 0.855c-81.92 44.8-224.853 91.733-317.439 104.105l-12.373 1.707c-40.96 5.12-74.24 43.52-74.24 84.48v515.413c0 50.774 41.387 89.174 92.16 84.907 89.6-7.253 225.28-52.48 301.227-99.84l10.665-6.4c6.4-3.84 14.507-5.973 22.615-5.973z" />
<glyph unicode="&#xe92b;" d="M938.667 760.747v-514.987c0-40.96-33.28-79.36-74.24-84.48l-14.080-1.705c-93.015-12.375-236.375-59.735-318.295-104.96-5.545-3.415-12.373-4.695-20.053-4.695v683.947c8.107 0 16.213 2.133 22.613 5.973l7.255 4.695c75.945 47.786 212.053 93.439 301.653 101.119h2.56c50.773 4.267 92.587-33.707 92.587-84.906z" />
<glyph unicode="&#xe92c;" d="M330.667 565.76h-96c-17.493 0-32 14.505-32 32 0 17.493 14.507 32 32 32h96c17.493 0 32-14.507 32-32 0-17.495-14.507-32-32-32z" />
<glyph unicode="&#xe92d;" d="M362.667 437.76h-128c-17.493 0-32 14.505-32 32 0 17.493 14.507 32 32 32h128c17.493 0 32-14.507 32-32 0-17.495-14.507-32-32-32z" />
<glyph unicode="&#xe92e;" glyph-name="book-line" d="M512 17.918c-12.8 0-25.6 2.987-36.267 8.96-79.785 43.52-220.16 89.6-308.053 101.12l-12.373 1.707c-55.893 6.825-101.973 59.305-101.973 116.053v515.413c0 33.707 13.227 64.427 37.547 86.614s55.893 32.853 89.173 29.867c93.867-7.253 235.519-54.187 315.734-104.533l10.24-5.973c2.985-1.707 9.385-1.707 11.945-0.427l6.827 4.267c80.213 50.347 221.867 98.133 316.16 106.24 0.853 0 4.267 0 5.12 0 31.147 2.987 63.147-8.107 87.040-30.293 24.32-22.187 37.547-52.907 37.547-86.613v-514.987c0-57.173-46.080-109.225-102.4-116.053l-14.080-1.707c-87.895-11.52-228.695-58.025-306.775-101.12-10.24-5.973-22.613-8.533-35.413-8.533zM169.813 814.078c-13.653 0-26.027-4.693-35.84-13.653-10.667-9.813-16.64-23.893-16.64-39.254v-515.413c0-25.173 21.76-49.493 46.080-52.907l12.8-1.705c95.999-12.8 243.199-61.015 328.534-107.52 3.84-1.707 9.385-2.135 11.52-1.28 85.333 47.36 233.385 96 329.813 108.8l14.507 1.705c24.32 2.987 46.080 27.735 46.080 52.907v514.987c0 15.786-5.975 29.439-16.64 39.679-11.095 9.813-25.175 14.507-40.96 13.653-0.855 0-4.267 0-5.12 0-81.495-7.253-212.907-51.2-284.587-96l-6.827-4.693c-23.465-14.507-56.745-14.507-79.36-0.427l-10.24 5.973c-72.96 44.801-204.373 88.321-287.999 95.147-1.707 0-3.413 0-5.12 0zM512 53.76c-17.493 0-32 14.505-32 32v640c0 17.493 14.507 32 32 32s32-14.507 32-32v-640c0-17.92-14.507-32-32-32zM330.667 565.76h-96c-17.495 0-32 14.505-32 32 0 17.493 14.505 32 32 32h96c17.493 0 32-14.507 32-32 0-17.495-14.507-32-32-32zM362.667 437.76h-128c-17.495 0-32 14.505-32 32 0 17.493 14.505 32 32 32h128c17.493 0 32-14.507 32-32 0-17.495-14.507-32-32-32z" />
<glyph unicode="&#xe92f;" d="M227.413 131.411c-4.693 0-9.813 1.28-14.080 3.415l-94.719 47.36c-10.667 5.545-17.493 16.64-17.493 28.585v118.615c0 17.493 14.507 32 32 32s32-14.507 32-32v-98.56l77.227-38.402c15.785-8.105 22.185-27.305 14.505-43.093-6.4-11.093-17.493-17.92-29.44-17.92z" />
<glyph unicode="&#xe930;" d="M512-10.665c-2.56 0-5.12 0.425-7.253 0.853-2.56 0.427-5.12 1.707-7.68 2.987l-94.293 46.933c-15.787 8.107-22.187 27.307-14.507 43.093 8.105 15.787 27.307 22.187 43.093 14.507l48.64-24.32v66.56c0 17.493 14.507 32 32 32 17.495 0 32-14.507 32-32v-66.56l48.64 24.32c15.787 7.68 34.987 1.28 43.095-14.507 8.105-15.785 1.705-34.985-14.507-43.093l-94.295-46.933c-2.56-1.28-5.12-2.135-7.68-2.987-2.56-0.427-4.693-0.853-7.253-0.853z" />
<glyph unicode="&#xe931;" d="M796.587 131.415c-11.52 0-23.040 6.4-28.587 17.493-8.105 15.787-1.705 34.987 14.507 43.095l77.227 38.398v98.562c0 17.493 14.505 32 32 32 17.493 0 32-14.507 32-32v-118.615c0-11.947-6.827-23.040-17.495-28.585l-94.72-47.36c-5.545-1.707-10.24-2.987-14.933-2.987z" />
<glyph unicode="&#xe932;" d="M512 344.745c-17.493 0-32 14.505-32 32v98.56l-77.225 38.4c-15.787 8.105-22.187 27.305-14.507 43.093 8.105 15.787 27.307 22.187 43.093 14.507l80.64-40.107 80.64 40.107c15.787 7.68 34.987 1.705 43.095-14.507 8.105-15.787 1.705-34.987-14.507-43.093l-77.227-38.4v-98.56c0-17.495-14.505-32-32-32z" />
<glyph unicode="&#xe933;" d="M132.693 534.613c-17.493 0-32 14.505-32 32v118.187c0 2.56 0.427 5.12 0.853 7.253 0.853 3.413 2.133 6.4 3.84 9.387 1.28 2.133 2.56 3.84 4.267 5.545 1.707 1.707 3.84 3.413 5.973 4.693 0.853 0.427 2.133 1.282 2.987 1.707l94.294 46.935c15.785 7.679 34.985 1.705 43.093-14.507 8.107-15.787 1.707-34.987-14.507-43.093l-37.545-18.775 37.545-18.773c15.787-8.107 22.187-27.307 14.507-43.093s-27.307-22.187-43.093-14.507l-48.641 24.32v-66.56c0.427-16.64-13.653-30.72-31.573-30.72z" />
<glyph unicode="&#xe934;" d="M606.72 795.309c-4.693 0-9.813 1.28-14.080 3.413l-80.64 40.107-80.64-40.107c-15.785-8.107-34.985-1.707-43.093 14.506-8.107 15.787-1.707 34.987 14.507 43.094l94.72 47.359c8.96 4.693 19.625 4.693 28.585 0l94.72-47.359c15.787-8.107 22.187-27.307 14.507-43.094-5.547-11.52-16.64-17.92-28.587-17.92z" />
<glyph unicode="&#xe935;" d="M891.307 534.615c-17.493 0-32 14.507-32 32v66.56l-48.64-24.32c-15.787-8.105-34.987-1.705-43.093 14.507-8.107 15.787-1.707 34.985 14.505 43.093l37.547 18.775-37.547 18.773c-15.785 8.107-22.185 27.305-14.505 43.093s27.305 22.188 43.093 14.507l94.293-46.933c0.855-0.427 2.135-0.855 2.987-1.707 2.56-1.28 4.693-3.413 6.827-5.547 1.28-1.705 2.56-3.413 3.84-5.12 1.705-2.985 2.985-5.973 3.84-9.385 0.425-2.56 0.853-5.12 0.853-7.255v-118.185c0-18.775-14.507-32.855-32-32.855z" />
<glyph unicode="&#xe936;" glyph-name="box-2-line" d="M511.994-10.665c-2.56 0-5.12 0.427-7.253 0.855-2.56 0.427-5.12 1.705-7.68 2.985l-94.295 46.935c-15.785 8.105-22.185 27.305-14.505 43.093 8.105 15.787 27.305 22.187 43.093 14.507l48.64-24.32v66.56c0 17.493 14.507 32 32 32s32-14.507 32-32v-66.56l48.64 24.32c15.787 7.68 34.987 1.28 43.093-14.507s1.707-34.987-14.505-43.093l-94.295-46.935c-2.56-1.28-5.12-2.133-7.68-2.985-2.56-0.427-4.693-0.855-7.253-0.855zM796.581 131.415c-11.52 0-23.040 6.402-28.587 17.495-8.107 15.787-1.707 34.985 14.507 43.093l77.225 38.4v98.56c0 17.495 14.507 32 32 32 17.495 0 32-14.505 32-32v-118.613c0-11.947-6.825-23.040-17.493-28.587l-94.72-47.36c-5.547-1.707-10.24-2.987-14.933-2.987zM227.407 131.415c-4.693 0-9.813 1.282-14.080 3.415l-94.719 47.36c-10.667 5.547-17.493 16.64-17.493 28.585v118.615c0 17.493 14.507 32 32 32s32-14.507 32-32v-98.56l77.227-38.4c15.785-8.107 22.185-27.307 14.505-43.095-6.4-11.093-17.493-17.92-29.44-17.92zM511.994 344.749c-17.493 0-32 14.505-32 32v98.56l-77.227 38.4c-15.785 8.105-22.185 27.307-14.505 43.093 8.105 15.787 27.305 22.187 43.093 14.507l80.64-40.107 80.64 40.107c15.787 7.68 34.987 1.707 43.093-14.507 8.107-16.213 1.707-34.987-14.505-43.093l-77.227-38.4v-98.56c0-17.495-14.507-32-32-32zM891.301 534.615c-17.495 0-32 14.507-32 32v66.56l-48.64-24.318c-15.787-8.107-34.987-1.707-43.095 14.505-8.105 15.787-1.705 34.987 14.507 43.093l37.547 18.775-37.547 18.773c-15.787 8.107-22.187 27.307-14.507 43.093 8.107 15.787 27.307 22.188 43.095 14.507l94.293-46.933c0.853-0.427 2.133-0.853 2.987-1.707 2.56-1.28 4.693-3.413 6.825-5.545 1.28-1.707 2.56-3.415 3.84-5.12 1.707-2.987 2.987-5.975 3.84-9.387 0.427-2.56 0.855-5.12 0.855-7.253v-118.187c0-18.773-14.507-32.855-32-32.855zM132.688 534.615c-17.493 0-32 14.507-32 32v118.187c0 2.56 0.427 5.12 0.853 7.253 0.853 3.415 2.134 6.402 3.84 9.387 1.28 2.135 2.56 3.84 4.267 5.547s3.84 3.413 5.973 4.693c0.853 0.427 2.133 1.28 2.987 1.707l94.294 46.933c15.785 7.681 34.985 1.707 43.093-14.507 8.107-16.213 1.707-34.985-14.507-43.093l-37.545-18.773 37.545-18.775c15.787-8.105 22.187-27.305 14.507-43.093-8.107-15.785-26.88-22.185-43.093-14.505l-48.641 24.318v-66.56c0.427-16.64-13.653-30.72-31.573-30.72zM606.714 795.309c-4.693 0-9.813 1.28-14.080 3.413l-80.64 40.107-80.64-40.107c-15.787-8.107-34.987-1.707-43.093 14.506-8.107 15.787-1.707 34.987 14.505 43.094l94.72 47.359c8.96 4.693 19.627 4.693 28.587 0l94.72-47.359c15.787-8.107 22.187-27.307 14.507-43.094-5.547-11.52-16.64-17.92-28.587-17.92z" />
<glyph unicode="&#xe937;" d="M899.84 662.187c-36.267 40.107-96.853 60.16-184.747 60.16h-10.24v1.707c0 71.679 0 160.426-160.425 160.426h-64.855c-160.425 0-160.425-89.173-160.425-160.426v-2.135h-10.24c-88.32 0-148.481-20.053-184.747-60.16-42.24-46.933-40.96-110.080-36.693-153.173l0.427-2.987 4.267-44.8c0.427-0.425 1.28-1.28 2.133-1.705 14.080-9.387 28.587-18.775 43.947-27.307 5.973-3.84 12.373-7.253 18.773-10.667 72.959-40.105 153.174-66.985 234.667-80.213 3.84-40.107 21.333-87.040 114.773-87.040s111.787 46.507 114.775 87.893c87.040 14.080 171.093 44.375 247.040 88.747 2.56 1.28 4.265 2.56 6.4 3.84 19.625 11.093 37.973 23.040 55.893 36.267 0.853 0.425 1.707 1.28 2.133 2.133l1.707 15.36 2.133 20.053c0.427 2.56 0.427 4.695 0.855 7.68 3.413 43.095 2.56 101.975-37.547 146.347zM558.507 369.92c0-45.225 0-52.053-52.48-52.053s-52.48 8.107-52.48 51.627v53.76h104.96v-53.335zM380.16 722.347v1.707c0 72.533 0 99.413 99.413 99.413h64.855c99.413 0 99.413-27.307 99.413-99.413v-2.135h-263.68v0.427z" />
<glyph unicode="&#xe938;" d="M874.667 435.2c-2.135-1.28-4.267-2.56-6.4-3.84-75.947-44.373-160-74.24-247.040-88.745-3.415-40.96-21.335-87.895-114.775-87.895s-111.36 46.507-114.773 87.040c-81.493 12.8-161.707 39.68-234.667 80.215-6.4 3.413-12.8 6.825-18.773 10.665-15.36 8.535-29.867 17.92-43.947 27.307-0.853 0.427-1.707 1.28-2.133 1.707l26.027-277.76c8.96-84.907 43.947-172.375 231.681-172.375h325.12c187.733 0 222.72 87.467 231.68 172.8l26.88 289.28c-0.427-0.853-1.28-1.705-2.135-2.133-18.345-13.227-37.12-25.6-56.745-36.267z" />
<glyph unicode="&#xe939;" glyph-name="briefcase-line" d="M682.667-10.667h-341.335c-197.119 0-233.813 91.733-243.199 180.905l-32 341.76c-4.693 44.8-5.973 110.935 38.4 160.427 38.4 42.667 101.974 63.147 194.134 63.147h426.665c92.587 0 156.16-20.907 194.135-63.147 44.373-49.493 43.093-115.627 38.4-160.853l-32-340.907c-9.387-89.6-46.080-181.333-243.2-181.333zM298.667 671.998c-72.107 0-121.601-14.080-146.774-42.24-20.907-23.040-27.733-58.453-22.187-111.36l32-341.76c7.253-67.413 25.6-123.305 179.626-123.305h341.335c153.6 0 172.373 55.893 179.625 123.733l32 340.907c5.547 53.333-1.28 88.745-22.185 111.785-25.175 28.16-74.667 42.24-146.775 42.24h-426.665zM682.667 672.002c-17.495 0-32 14.505-32 32v34.133c0 75.947 0 104.534-104.535 104.534h-68.265c-104.535 0-104.535-28.587-104.535-104.534v-34.133c0-17.495-14.505-32-32-32-17.493 0-32 14.505-32 32v34.133c0 75.094 0 168.534 168.535 168.534h68.265c168.535 0 168.535-93.44 168.535-168.534v-34.133c0-17.495-14.507-32-32-32zM512 245.333c-117.333 0-117.333 72.535-117.333 116.055v43.945c0 60.16 14.505 74.667 74.665 74.667h85.335c60.16 0 74.665-14.507 74.665-74.667v-42.665c0-44.375 0-117.335-117.333-117.335zM458.667 416c0-3.413 0-7.253 0-10.667v-43.945c0-43.947 0-52.055 53.333-52.055s53.333 6.827 53.333 52.48v43.52c0 3.415 0 7.255 0 10.667-3.413 0-7.253 0-10.665 0h-85.335c-3.413 0-7.253 0-10.665 0zM597.333 329.815c-15.785 0-29.865 11.947-31.573 28.16-2.133 17.493 10.24 33.705 27.733 35.84 112.64 14.080 220.587 56.745 311.467 122.88 14.080 10.665 34.133 7.253 44.8-7.255 10.24-14.080 7.253-34.133-7.253-44.798-99.84-72.535-217.6-119.042-341.335-134.827-1.28 0-2.56 0-3.84 0zM426.667 329.387c-1.28 0-2.56 0-3.84 0-116.907 13.227-230.828 55.893-329.388 123.307-14.507 9.813-18.347 29.865-8.533 44.373s29.867 18.347 44.373 8.533c90.028-61.44 193.708-100.265 300.373-112.64 17.495-2.133 30.295-17.92 28.16-35.413-1.28-16.213-14.933-28.16-31.145-28.16z" />
<glyph unicode="&#xe93a;" d="M930.56 791.893c-55.893-139.52-183.467-321.707-305.067-440.747-17.493 110.080-105.385 196.267-216.32 211.627 119.467 122.027 302.935 251.307 442.88 307.627 24.747 9.387 49.495 2.133 64.855-13.227 16.213-16.213 23.893-40.533 13.653-65.28z" />
<glyph unicode="&#xe93b;" d="M625.495 351.147c-21.335-20.907-42.667-40.107-63.147-56.32l-84.053-67.413c-10.667-7.68-21.335-14.080-33.28-19.2 0 8.105-0.855 16.213-1.707 24.745-4.693 35.415-20.907 69.12-49.493 97.707-29.44 29.013-64.427 45.653-100.695 50.347-8.533 0.853-17.493 1.28-25.6 0.853 4.695 13.227 11.947 25.6 20.907 35.84l66.56 84.053c15.787 20.055 34.133 40.535 54.187 61.015 110.933-15.36 198.825-101.547 216.32-211.627z" />
<glyph unicode="&#xe93c;" d="M445.015 208.213c0-46.933-17.92-91.733-52.055-125.44-26.025-26.453-61.013-44.373-103.68-49.493l-104.533-11.52c-57.173-6.4-106.24 42.665-99.84 100.265l11.52 104.96c10.24 93.44 88.32 153.175 171.093 154.88 8.107 0.427 17.067 0 25.6-0.853 36.267-4.693 71.255-21.333 100.695-50.347 28.585-28.585 44.8-62.293 49.493-97.705 0.853-8.535 1.707-16.64 1.707-24.747z" />
<glyph unicode="&#xe93d;" glyph-name="brush-line" d="M445.013 176.215c-6.4 0-12.373 1.707-17.92 5.547-8.96 5.973-14.080 15.785-14.080 26.453 0 6.4-0.425 13.227-1.28 20.055-3.84 30.293-17.493 56.745-40.533 79.785s-51.627 37.547-82.347 41.387c-5.12 0.427-12.373 0.853-19.2 0.427-11.093-0.855-21.333 3.84-27.733 12.8-6.4 8.533-8.107 20.053-4.693 30.293 6.4 17.493 15.785 33.28 26.88 46.080l65.705 82.773c113.067 141.227 342.187 311.040 509.867 378.454 35.413 13.653 73.387 5.547 99.413-20.053 26.88-26.88 34.987-65.28 20.907-100.267-67.413-168.106-236.8-396.799-378.027-509.866l-84.053-67.413c-15.787-11.52-28.587-18.775-41.387-23.895-3.413-1.705-7.68-2.56-11.52-2.56zM321.707 407.895c35.84-9.385 67.84-28.16 94.72-55.040 26.88-26.453 44.8-57.173 53.76-91.305l72.105 58.025c133.975 107.095 294.827 324.267 358.4 483.84 6.4 15.787-2.56 26.88-6.825 30.72-2.987 2.987-14.080 12.373-31.147 5.973-158.72-64-375.893-224.854-483.413-358.827l-57.6-73.387zM174.080-10.665c-32 0-62.72 12.8-85.76 35.84-26.453 26.453-39.253 63.145-34.987 100.693l11.52 104.96c11.093 104.107 96.427 181.333 202.239 183.467 8.107 0.425 18.775 0 28.587-0.855 46.507-5.973 87.893-26.88 121.173-60.16 32.855-32.853 52.48-72.105 58.455-116.053 1.28-9.387 2.133-19.627 2.133-28.587 0-56.32-21.76-108.8-61.013-148.48-32.855-32.425-75.095-52.48-122.88-58.453l-105.387-11.52c-4.693-0.427-9.387-0.853-14.080-0.853zM275.2 349.867c-1.707 0-3.84 0-5.547 0-64.425-1.28-132.693-45.227-141.226-126.293l-11.52-104.96c-2.133-17.92 4.267-35.415 16.64-48.215 12.373-12.373 29.867-18.773 47.36-16.64l104.961 11.52c32.853 4.267 62.293 17.92 84.48 40.107 27.305 27.307 42.665 64 42.665 103.253 0 6.4-0.425 13.227-1.28 20.055-3.84 30.293-17.493 56.745-40.533 79.785s-51.627 37.547-82.347 41.387c-3.413 0-8.533 0-13.653 0zM607.573 310.615c-17.493 0-32 14.507-32 32 0 93.867-76.373 169.813-169.813 169.813-17.493 0-32 14.507-32 32 0 17.495 14.080 32 31.573 32 128.855 0 233.815-104.96 233.815-233.813 0.425-17.92-14.080-32-31.575-32z" />
<glyph unicode="&#xe93e;" d="M452.265 782.934v-78.932h-63.145c-68.695 0-103.253-34.56-103.253-103.253v-408.747h-108.8c-61.013 0-91.734 30.72-91.734 91.735v499.197c0 61.013 30.721 91.734 91.734 91.734h183.465c61.015 0 91.733-30.721 91.733-91.734z" />
<glyph unicode="&#xe93f;" d="M741.12 600.747v-476.162c0-68.693-34.133-103.253-102.825-103.253h-249.175c-68.693 0-103.253 34.56-103.253 103.253v476.162c0 68.693 34.56 103.253 103.253 103.253h249.175c68.693 0 102.825-34.56 102.825-103.253z" />
<glyph unicode="&#xe940;" d="M938.667 782.934v-499.197c0-61.015-30.722-91.735-91.735-91.735h-105.813v408.747c0 68.693-34.133 103.253-102.825 103.253h-66.56v78.932c0 61.013 30.718 91.734 91.731 91.734h183.467c61.013 0 91.735-30.721 91.735-91.734z" />
<glyph unicode="&#xe941;" d="M597.335 458.667h-170.667c-17.493 0-32 14.507-32 32 0 17.495 14.507 32 32 32h170.667c17.493 0 32-14.505 32-32 0-17.493-14.507-32-32-32z" />
<glyph unicode="&#xe942;" d="M597.335 330.667h-170.667c-17.493 0-32 14.507-32 32 0 17.495 14.507 32 32 32h170.667c17.493 0 32-14.505 32-32 0-17.493-14.507-32-32-32z" />
<glyph unicode="&#xe943;" d="M544 149.333v-128h-64v128c0 17.493 14.507 32 32 32s32-14.507 32-32z" />
<glyph unicode="&#xe944;" glyph-name="buildings-2-line" d="M285.867 160.002h-108.8c-78.507 0-123.734 45.227-123.734 123.735v499.197c0 78.507 45.228 123.734 123.734 123.734h183.467c78.505 0 123.731-45.228 123.731-123.734v-78.932c0-17.495-14.507-32-32-32s-32 14.505-32 32v78.932c0 43.52-16.211 59.734-59.731 59.734h-183.467c-43.52 0-59.734-16.214-59.734-59.734v-499.197c0-43.52 16.214-59.735 59.734-59.735h108.8c17.493 0 32-14.507 32-32 0-17.495-14.507-32-32-32zM638.303-10.667h-249.175c-85.76 0-135.253 49.493-135.253 135.253v476.162c0 85.76 49.493 135.253 135.253 135.253h249.175c85.76 0 134.825-49.493 134.825-135.253v-476.162c0-85.76-49.065-135.253-134.825-135.253zM389.128 672c-51.2 0-71.253-20.053-71.253-71.253v-476.162c0-51.2 20.053-71.253 71.253-71.253h249.175c50.773 0 70.825 20.053 70.825 71.253v476.162c0 51.2-20.053 71.253-70.825 71.253h-249.175zM846.927 160.002h-105.813c-17.493 0-32 14.505-32 32 0 17.493 14.507 32 32 32h105.813c43.52 0 59.735 16.215 59.735 59.735v499.197c0 43.52-16.215 59.734-59.735 59.734h-183.465c-43.52 0-59.733-16.214-59.733-59.734v-78.932c0-17.495-14.505-32-32-32-17.493 0-32 14.505-32 32v78.932c0 78.507 45.225 123.734 123.733 123.734h183.465c78.507 0 123.735-45.228 123.735-123.734v-499.197c0-78.507-45.227-123.735-123.735-123.735zM597.333 458.667h-170.665c-17.495 0-32 14.507-32 32 0 17.495 14.505 32 32 32h170.665c17.495 0 32-14.505 32-32 0-17.493-14.505-32-32-32zM597.333 330.667h-170.665c-17.495 0-32 14.507-32 32 0 17.495 14.505 32 32 32h170.665c17.495 0 32-14.505 32-32 0-17.493-14.505-32-32-32zM512-10.667c-17.493 0-32 14.505-32 32v128c0 17.493 14.507 32 32 32s32-14.507 32-32v-128c0-17.495-14.507-32-32-32z" />
<glyph unicode="&#xe945;" d="M891.305 405.335v-42.667h-37.12c-31.573 0-57.173-25.6-57.173-57.6v-12.8c0-32-25.6-57.6-57.6-57.6-31.573 0-57.175 25.6-57.175 57.6v12.8c0 32-26.025 57.6-57.6 57.6-31.573 0-57.173-25.6-57.173-57.6v-12.8c0-32-26.027-57.6-57.6-57.6s-57.6 25.6-57.6 57.6v12.8c0 32-25.6 57.6-57.173 57.6-31.575 0-57.6-25.6-57.6-57.6v-12.8c0-32-25.6-57.6-57.175-57.6-32 0-57.6 25.6-57.6 57.6v13.653c0 31.575-25.173 57.175-56.319 57.6h-33.707v41.815c0 58.88 44.373 108.8 104.533 123.305 11.947 2.987 24.32 4.695 37.547 4.695h474.453c13.227 0 25.6-1.707 37.547-4.695 60.16-14.505 104.533-64.425 104.533-123.305z" />
<glyph unicode="&#xe946;" d="M786.777 654.080v-125.44c-11.947 2.985-24.32 4.693-37.547 4.693h-474.453c-13.227 0-25.6-1.707-37.547-4.693v125.44c0 51.2 46.080 92.585 103.253 92.585h343.040c57.175 0 103.255-41.385 103.255-92.585z" />
<glyph unicode="&#xe947;" d="M373.333 808.531v-62.293h-32.853c-11.095 0-21.335-1.28-31.147-3.84v66.133c0 14.933 14.507 27.733 32 27.733s32-12.8 32-27.733z" />
<glyph unicode="&#xe948;" d="M714.667 817.918v-75.52c-9.813 2.987-20.053 4.267-31.147 4.267h-32.853v71.253c0 17.493 14.507 32 32 32s32-14.507 32-32z" />
<glyph unicode="&#xe949;" d="M544 839.679v-93.014h-64v93.014c0 19.2 14.507 34.987 32 34.987s32-15.787 32-34.987z" />
<glyph unicode="&#xe94a;" d="M906.665 85.335h-15.36v277.333h-37.12c-31.573 0-57.173-25.6-57.173-57.6v-12.8c0-32-25.6-57.6-57.6-57.6-31.573 0-57.173 25.6-57.173 57.6v12.8c0 32-26.027 57.6-57.6 57.6-31.575 0-57.175-25.6-57.175-57.6v-12.8c0-32-26.025-57.6-57.6-57.6-31.573 0-57.6 25.6-57.6 57.6v12.8c0 32-25.6 57.6-57.173 57.6s-57.6-25.6-57.6-57.6v-12.8c0-32-25.6-57.6-57.173-57.6-32 0-57.6 25.6-57.6 57.6v13.655c0 31.573-25.175 57.173-56.32 57.6h-33.707v-278.187h-15.36c-17.493 0-32-14.507-32-32s14.507-32 32-32h789.332c17.495 0 32 14.507 32 32s-14.505 32-32 32z" />
<glyph unicode="&#xe94b;" glyph-name="cake-line" d="M938.667-10.665h-853.334c-17.493 0-32 14.505-32 32 0 17.493 14.507 32 32 32h853.334c17.493 0 32-14.507 32-32 0-17.495-14.507-32-32-32zM891.305-10.665c-17.493 0-32 14.505-32 32v384c0 52.905-49.493 96-110.080 96h-474.453c-60.587 0-110.080-43.095-110.080-96v-384c0-17.495-14.507-32-32-32s-32 14.505-32 32v384c0 88.32 78.080 160 174.080 160h474.027c96 0 174.080-71.68 174.080-160v-384c0.425-17.495-14.080-32-31.575-32zM786.777 501.333c-17.495 0-32 14.507-32 32v120.747c0 33.28-32 60.585-70.827 60.585h-343.467c-39.253 0-70.825-27.305-70.825-60.585v-120.747c0-17.493-14.507-32-32-32-17.495 0-32.427 14.507-32.427 32v120.747c0 68.693 60.587 124.586 134.827 124.586h343.465c74.24 0 134.827-55.893 134.827-124.586v-120.747c0.427-17.493-14.080-32-31.573-32zM739.411 202.667c-49.493 0-89.6 40.107-89.6 89.6v13.227c0 14.080-11.52 25.6-25.6 25.6s-25.6-11.52-25.6-25.6v-13.227c0-49.493-40.105-89.6-89.6-89.6-49.493 0-89.6 40.107-89.6 89.6v13.227c0 14.080-11.52 25.6-25.6 25.6s-25.6-11.52-25.6-25.6v-13.227c0-49.493-40.105-89.6-89.6-89.6-49.493 0-89.599 40.107-89.599 89.6v14.080c0 13.653-11.093 25.173-25.173 25.6h-15.787c-17.493 0.427-32 14.933-31.573 32.427s14.507 31.573 32 31.573h16.213c48.639-0.853 88.319-40.96 88.319-89.6v-14.080c0-14.080 11.52-25.6 25.6-25.6s25.6 11.52 25.6 25.6v13.227c0 49.493 40.107 89.6 89.6 89.6 49.495 0 89.6-40.107 89.6-89.6v-13.227c0-14.080 11.52-25.6 25.6-25.6s25.6 11.52 25.6 25.6v13.227c0 49.493 40.107 89.6 89.6 89.6 49.495 0 89.6-40.107 89.6-89.6v-13.227c0-14.080 11.52-25.6 25.6-25.6s25.6 11.52 25.6 25.6v13.227c0 49.493 40.107 89.6 89.6 89.6h19.2c17.495 0 32-14.507 32-32 0-17.495-14.505-32-32-32h-19.2c-14.080 0-25.6-11.52-25.6-25.6v-13.227c0-49.493-40.105-89.6-89.6-89.6zM341.333 714.667c-17.493 0-32 14.505-32 32v85.333c0 17.493 14.507 32 32 32 17.495 0 32-14.507 32-32v-85.333c0-17.495-14.505-32-32-32zM682.667 714.667c-17.495 0-32 14.505-32 32v85.333c0 17.493 14.505 32 32 32 17.493 0 32-14.507 32-32v-85.333c0-17.495-14.507-32-32-32zM512 714.665c-17.493 0-32 14.507-32 32v128.001c0 17.493 14.507 32 32 32s32-14.507 32-32v-128.001c0-17.493-14.507-32-32-32z" />
<glyph unicode="&#xe94c;" d="M714.665 808.106v66.56c0 17.493-14.505 32-32 32-17.493 0-32-14.507-32-32v-64h-277.333v64c0 17.493-14.507 32-32 32s-32-14.507-32-32v-66.56c-115.2-10.667-171.093-79.361-179.627-181.333-0.853-12.373 9.387-22.613 21.333-22.613h721.921c12.373 0 22.613 10.665 21.333 22.613-8.533 101.973-64.427 170.667-179.627 181.333z" />
<glyph unicode="&#xe94d;" d="M853.333 540.162c23.467 0 42.667-19.2 42.667-42.667v-262.827c0-128-64-213.333-213.333-213.333h-341.335c-149.333 0-213.333 85.333-213.333 213.333v262.827c0 23.467 19.2 42.667 42.667 42.667h682.666z" />
<glyph unicode="&#xe94e;" d="M362.667 320c-11.095 0-22.187 4.693-30.295 12.373-7.68 8.107-12.373 19.2-12.373 30.295 0 11.093 4.693 22.185 12.373 30.293 11.947 11.945 30.72 15.787 46.507 8.96 5.547-2.133 10.24-5.12 14.080-8.96 7.68-8.107 12.373-19.2 12.373-30.293 0-11.095-4.693-22.187-12.373-30.295-8.107-7.68-19.2-12.373-30.293-12.373z" />
<glyph unicode="&#xe94f;" d="M512 320c-11.095 0-22.187 4.693-30.295 12.373-7.68 8.107-12.373 19.2-12.373 30.295 0 11.093 4.693 22.185 12.373 30.293 3.84 3.84 8.535 6.827 14.080 8.96 15.787 6.827 34.56 2.985 46.507-8.96 7.68-8.107 12.373-19.2 12.373-30.293 0-11.095-4.693-22.187-12.373-30.295-2.133-1.705-4.267-3.413-6.4-5.118-2.56-1.707-5.12-2.989-7.68-3.842-2.56-1.28-5.12-2.133-7.68-2.56-2.987-0.427-5.547-0.853-8.533-0.853z" />
<glyph unicode="&#xe950;" d="M661.335 320c-11.095 0-22.187 4.695-30.295 12.375-7.68 8.105-12.373 19.198-12.373 30.293 0 11.093 4.693 22.185 12.373 30.293 4.267 3.84 8.535 6.827 14.080 8.96 7.68 3.415 16.215 4.267 24.747 2.56 2.56-0.425 5.12-1.28 7.68-2.56 2.56-0.853 5.12-2.133 7.68-3.84 2.133-1.707 4.267-3.413 6.4-5.12 7.68-8.107 12.373-19.2 12.373-30.293 0-11.095-4.693-22.187-12.373-30.293-2.133-1.707-4.267-3.415-6.4-5.12-2.56-1.707-5.12-2.987-7.68-3.842-2.56-1.28-5.12-2.133-7.68-2.56-2.987-0.425-5.973-0.853-8.533-0.853z" />
<glyph unicode="&#xe951;" d="M362.667 170.665c-5.547 0-11.095 1.28-16.215 3.413-5.545 2.135-9.813 5.122-14.080 8.962-7.68 8.107-12.373 19.2-12.373 30.293s4.693 22.187 12.373 30.293c4.267 3.84 8.535 6.827 14.080 8.962 7.68 3.413 16.215 4.265 24.747 2.56 2.56-0.427 5.12-1.28 7.68-2.56 2.56-0.855 5.12-2.135 7.68-3.842 2.133-1.707 4.267-3.413 6.4-5.12 7.68-8.105 12.373-19.2 12.373-30.293s-4.693-22.185-12.373-30.293c-2.133-1.707-4.267-3.84-6.4-5.12-2.56-1.707-5.12-2.987-7.68-3.842-2.56-1.28-5.12-2.133-7.68-2.558-2.987-0.427-5.547-0.855-8.533-0.855z" />
<glyph unicode="&#xe952;" d="M512 170.667c-11.095 0-22.187 4.693-30.295 12.373-7.68 8.107-12.373 19.2-12.373 30.293 0 11.095 4.693 22.187 12.373 30.295 15.787 15.785 44.8 15.785 60.587 0 7.68-8.107 12.373-19.2 12.373-30.295 0-11.093-4.693-22.185-12.373-30.293-8.107-7.68-19.2-12.373-30.293-12.373z" />
<glyph unicode="&#xe953;" d="M661.335 170.667c-11.095 0-22.187 4.693-30.295 12.373-7.68 8.107-12.373 19.2-12.373 30.293 0 11.095 4.693 22.187 12.373 30.295 15.787 15.785 44.8 15.785 60.587 0 7.68-8.107 12.373-19.2 12.373-30.295 0-11.093-4.693-22.185-12.373-30.293-8.107-7.68-19.2-12.373-30.293-12.373z" />
<glyph unicode="&#xe954;" glyph-name="calendar-line" d="M341.333 714.665c-17.493 0-32 14.507-32 32v128.001c0 17.493 14.507 32 32 32 17.495 0 32-14.507 32-32v-128.001c0-17.493-14.505-32-32-32zM682.667 714.665c-17.495 0-32 14.507-32 32v128.001c0 17.493 14.505 32 32 32 17.493 0 32-14.507 32-32v-128.001c0-17.493-14.507-32-32-32zM362.667 341.335c-5.547 0-11.095 1.278-16.215 3.413-5.545 2.133-9.813 5.12-14.080 8.96-7.68 8.107-12.373 18.773-12.373 30.293 0 5.547 1.28 11.095 3.413 16.215 2.135 5.12 5.12 9.813 8.96 14.078 4.267 3.84 8.535 6.827 14.080 8.962 15.36 6.4 34.56 2.985 46.507-8.962 7.68-8.105 12.373-19.198 12.373-30.293 0-2.56-0.425-5.547-0.853-8.533-0.427-2.56-1.28-5.12-2.56-7.68-0.853-2.56-2.133-5.12-3.84-7.68-1.28-2.133-3.413-4.267-5.12-6.4-8.107-7.68-19.2-12.373-30.293-12.373zM512 341.335c-5.547 0-11.093 1.278-16.213 3.413-5.547 2.133-9.815 5.12-14.080 8.96-7.68 8.107-12.375 18.773-12.375 30.293 0 5.547 1.28 11.095 3.415 16.215 2.133 5.12 5.12 9.813 8.96 14.078 4.265 3.84 8.533 6.829 14.080 8.962 15.36 6.827 34.56 2.985 46.505-8.962 7.68-8.105 12.375-19.198 12.375-30.293 0-2.56-0.427-5.547-0.855-8.533-0.425-2.56-1.28-5.12-2.56-7.68-0.853-2.56-2.133-5.12-3.84-7.68-1.28-2.133-3.413-4.267-5.12-6.4-8.105-7.68-19.2-12.373-30.293-12.373zM661.333 341.335c-5.545 0-11.093 1.278-16.213 3.413-5.547 2.133-9.813 5.12-14.080 8.96-1.707 2.133-3.413 4.267-5.12 6.4-1.707 2.56-2.987 5.12-3.84 7.68-1.28 2.56-2.133 5.12-2.56 7.68-0.427 2.985-0.853 5.973-0.853 8.533 0 11.095 4.693 22.187 12.373 30.293 4.267 3.84 8.533 6.829 14.080 8.962 15.787 6.827 34.56 2.985 46.507-8.962 7.68-8.105 12.373-19.198 12.373-30.293 0-2.56-0.427-5.547-0.853-8.533-0.427-2.56-1.28-5.12-2.56-7.68-0.855-2.56-2.135-5.12-3.84-7.68-1.28-2.133-3.415-4.267-5.12-6.4-8.107-7.68-19.2-12.373-30.295-12.373zM362.667 192c-5.547 0-11.095 1.28-16.215 3.413-5.12 2.135-9.813 5.122-14.080 8.962-7.68 8.107-12.373 19.2-12.373 30.293 0 5.547 1.28 11.095 3.413 16.215 2.135 5.545 5.12 10.238 8.96 14.078 15.787 15.787 44.8 15.787 60.587 0 7.68-8.105 12.373-19.2 12.373-30.293s-4.693-22.185-12.373-30.293c-8.107-7.68-19.2-12.375-30.293-12.375zM512 192c-11.093 0-22.187 4.695-30.293 12.375-7.68 8.107-12.375 19.2-12.375 30.293 0 5.547 1.28 11.095 3.415 16.215 2.133 5.545 5.12 10.238 8.96 14.078 15.785 15.787 44.8 15.787 60.585 0 3.84-3.84 6.827-8.533 8.96-14.078 2.135-5.12 3.415-10.667 3.415-16.215 0-11.093-4.695-22.185-12.375-30.293-8.105-7.68-19.2-12.375-30.293-12.375zM661.333 191.998c-11.093 0-22.185 4.695-30.293 12.375-3.84 3.84-6.827 8.533-8.96 14.080-2.133 5.12-3.413 10.665-3.413 16.213s1.28 11.095 3.413 16.215c2.133 5.545 5.12 10.238 8.96 14.078 9.813 9.815 24.747 14.507 38.4 11.522 2.987-0.427 5.547-1.28 8.107-2.56 2.56-0.855 5.12-2.135 7.68-3.842 2.133-1.28 4.265-3.413 6.4-5.12 7.68-8.105 12.373-19.2 12.373-30.293s-4.693-22.185-12.373-30.293c-8.107-7.68-19.2-12.375-30.295-12.375zM874.667 540.162h-725.334c-17.493 0-32 14.505-32 32 0 17.493 14.507 32 32 32h725.334c17.493 0 32-14.507 32-32 0-17.495-14.507-32-32-32zM682.667-10.667h-341.335c-155.733 0-245.333 89.6-245.333 245.333v362.667c0 155.733 89.6 245.333 245.333 245.333h341.335c155.733 0 245.333-89.601 245.333-245.333v-362.667c0-155.733-89.6-245.333-245.333-245.333zM341.333 778.666c-122.025 0-181.333-59.306-181.333-181.333v-362.667c0-122.025 59.307-181.333 181.333-181.333h341.335c122.025 0 181.333 59.307 181.333 181.333v362.667c0 122.027-59.307 181.333-181.333 181.333h-341.335z" />
<glyph unicode="&#xe955;" d="M503.040 353.707l-139.52-139.52c-15.36 13.655-30.295 27.735-44.8 42.24-43.947 44.375-83.627 90.88-119.040 139.52-34.987 48.64-63.147 97.28-83.627 145.495-20.48 48.64-30.72 95.145-30.72 139.52 0 29.013 5.12 56.745 15.36 82.346 10.24 26.027 26.453 49.92 49.067 71.253 27.307 26.88 57.173 40.107 88.746 40.107 11.947 0 23.895-2.56 34.56-7.68 11.095-5.12 20.907-12.8 28.587-23.893l98.987-139.52c7.68-10.667 13.225-20.48 17.065-29.867 3.84-8.96 5.975-17.92 5.975-26.025 0-10.24-2.987-20.48-8.96-30.295-5.547-9.813-13.655-20.053-23.895-30.293l-32.425-33.707c-4.695-4.693-6.827-10.24-6.827-17.065 0-3.415 0.427-6.4 1.28-9.815 1.28-3.413 2.56-5.973 3.413-8.533 7.68-14.080 20.907-32.427 39.68-54.613 19.2-22.187 39.68-44.8 61.867-67.415 15.36-14.933 30.293-29.44 45.227-42.24z" />
<glyph unicode="&#xe956;" d="M937.385 177.916c0-11.945-2.133-24.32-6.4-36.265-1.28-3.415-2.56-6.827-4.267-10.24-7.253-15.36-16.64-29.867-29.013-43.52-20.907-23.040-43.947-39.68-69.973-50.347-0.427 0-0.855-0.427-1.28-0.427-25.175-10.24-52.48-15.785-81.92-15.785-43.52 0-90.027 10.24-139.095 31.145-49.065 20.907-98.133 49.067-146.773 84.48-16.64 12.375-33.28 24.747-49.067 37.975l139.52 139.52c11.947-8.96 22.615-15.787 31.575-20.48 2.133-0.855 4.693-2.135 7.68-3.415 3.413-1.28 6.825-1.705 10.665-1.705 7.255 0 12.8 2.56 17.495 7.253l32.425 32c10.667 10.667 20.907 18.773 30.72 23.893 9.815 5.975 19.627 8.96 30.295 8.96 8.105 0 16.64-1.705 26.025-5.545 9.387-3.84 19.2-9.387 29.867-16.64l141.227-100.267c11.093-7.68 18.773-16.64 23.465-27.307 4.267-10.665 6.827-21.333 6.827-33.28z" />
<glyph unicode="&#xe957;" glyph-name="call-line" d="M744.533-10.665c-48.213 0-98.985 11.52-151.465 33.707-51.2 21.76-102.827 51.627-153.175 87.893-49.92 36.693-98.133 77.653-143.785 122.453-45.227 45.655-86.187 93.867-122.454 143.362-36.693 51.2-66.133 102.4-87.040 151.893-22.187 52.905-33.28 104.105-33.28 152.32 0 33.28 5.973 64.853 17.493 94.293 11.947 30.293 31.147 58.453 57.173 82.773 32.853 32.427 70.4 48.64 110.508 48.64 16.64 0 33.705-3.84 48.213-10.667 16.64-7.68 30.72-19.2 40.96-34.56l98.987-139.52c8.96-12.375 15.785-24.32 20.48-36.267 5.545-12.8 8.533-25.6 8.533-37.973 0-16.215-4.693-32-13.653-46.935-6.4-11.52-16.215-23.893-28.587-36.265l-29.013-30.293c0.425-1.28 0.853-2.135 1.28-2.987 5.12-8.96 15.36-24.32 34.985-47.36 20.907-23.893 40.535-45.653 60.16-65.707 25.175-24.745 46.080-44.373 65.707-60.587 24.32-20.478 40.107-30.718 49.493-35.413l-0.853-2.133 31.147 30.72c13.225 13.227 26.025 23.040 38.4 29.44 23.465 14.505 53.333 17.067 83.2 4.693 11.093-4.693 23.040-11.093 35.84-20.053l141.653-100.693c15.787-10.667 27.307-24.32 34.133-40.535 6.4-16.213 9.387-31.145 9.387-46.080 0-20.48-4.693-40.96-13.653-60.16s-20.055-35.84-34.135-51.2c-24.32-26.88-50.773-46.080-81.493-58.453-29.44-11.947-61.44-18.347-95.147-18.347zM238.507 842.668c-23.467 0-45.227-10.24-66.134-30.72-19.627-18.347-33.28-38.4-41.813-60.161-8.96-22.185-13.227-45.653-13.227-70.825 0-39.68 9.387-82.775 28.16-127.147 19.2-45.227 46.080-92.16 80.214-139.093 34.133-46.933 72.96-92.587 115.625-135.68 42.667-42.24 88.747-81.495 136.107-116.055 46.080-33.705 93.44-61.013 140.373-80.638 72.96-31.147 141.227-38.4 197.547-14.935 21.76 8.96 40.96 22.615 58.453 42.24 9.815 10.667 17.495 22.187 23.895 35.84 5.12 10.667 7.68 21.76 7.68 32.855 0 6.825-1.28 13.653-4.695 21.333-1.28 2.56-3.84 7.253-11.945 12.8l-141.655 100.693c-8.533 5.975-16.213 10.24-23.465 13.227-9.387 3.84-13.227 7.68-27.735-1.28-8.533-4.267-16.213-10.667-24.745-19.2l-32.427-32c-16.64-16.213-42.24-20.053-61.867-12.8l-11.52 5.12c-17.493 9.385-37.973 23.893-60.585 43.093-20.48 17.495-42.667 37.975-69.547 64.427-20.907 21.333-41.813 43.947-63.573 69.12-20.055 23.465-34.56 43.52-43.52 60.16l-5.12 12.8c-2.56 9.813-3.415 15.36-3.415 21.333 0 15.36 5.547 29.015 16.215 39.68l32 33.28c8.533 8.533 14.933 16.64 19.2 23.893 3.413 5.547 4.693 10.24 4.693 14.507 0 3.413-1.28 8.533-3.413 13.653-2.987 6.827-7.68 14.507-13.655 22.615l-98.985 139.946c-4.267 5.973-9.387 10.24-15.787 13.227-6.827 2.987-14.080 4.693-21.333 4.693zM595.2 319.575l-6.827-29.013 11.52 29.867c-2.133 0.425-3.84-0.002-4.693-0.855z" />
<glyph unicode="&#xe958;" d="M946.347 377.173c-6.4 70.4-25.173 145.493-162.133 145.493h-544.427c-136.96 0-155.307-75.093-162.133-145.493l-23.893-259.84c-2.987-32.427 7.68-64.853 29.867-89.173 22.613-24.747 54.613-38.827 88.747-38.827h80.213c69.12 0 82.347 39.68 90.88 65.707l8.533 25.6c9.815 29.44 12.375 36.693 50.775 36.693h218.453c38.4 0 39.68-4.267 50.773-36.693l8.535-25.6c8.533-26.027 21.76-65.707 90.88-65.707h80.213c33.707 0 66.133 14.080 88.747 38.827 22.185 24.32 32.853 56.745 29.865 89.173l-23.893 259.84z" />
<glyph unicode="&#xe959;" d="M896 650.667h-42.667c-0.425 0-0.425 0-0.853 0l-16.213 77.227c-15.36 74.667-47.36 143.36-174.507 143.36h-299.52c-127.147 0-159.147-68.693-174.507-143.36l-16.213-77.227c-0.427 0-0.427 0-0.853 0h-42.667c-17.493 0-32-14.505-32-32 0-17.493 14.507-32 32-32h30.293l-17.92-85.333c23.040 13.227 55.040 21.333 99.414 21.333h544.425c44.375 0 76.375-8.105 99.415-21.333l-17.92 85.333h30.293c17.493 0 32 14.507 32 32 0 17.495-14.507 32-32 32z" />
<glyph unicode="&#xe95a;" d="M384 288h-128c-17.493 0-32 14.507-32 32s14.507 32 32 32h128c17.493 0 32-14.507 32-32s-14.507-32-32-32z" />
<glyph unicode="&#xe95b;" d="M768 288h-128c-17.493 0-32 14.507-32 32s14.507 32 32 32h128c17.493 0 32-14.507 32-32s-14.507-32-32-32z" />
<glyph unicode="&#xe95c;" glyph-name="car-line" d="M853.317 458.663h-682.667c-9.813 0-18.773 4.267-24.747 11.947-5.973 7.253-8.533 17.493-6.4 26.88l48.213 230.4c15.787 74.666 47.787 143.359 174.507 143.359h299.945c126.72 0 158.72-69.12 174.507-143.359l48.213-230.827c2.135-9.387-0.425-19.2-6.4-26.88-6.4-7.253-15.36-11.52-25.173-11.52zM209.904 522.663h603.733l-40.107 192c-11.945 55.893-26.025 92.587-111.785 92.587h-299.52c-85.76 0-99.84-36.693-111.787-92.587l-40.533-192zM851.61-10.673h-80.213c-69.12 0-82.347 39.68-90.88 65.707l-8.535 25.6c-11.093 32.427-12.373 36.693-50.773 36.693h-218.453c-38.4 0-40.96-7.253-50.775-36.693l-8.533-25.6c-8.96-26.453-21.76-65.707-90.88-65.707h-80.213c-33.707 0-66.133 14.080-88.747 38.827-22.187 24.32-32.853 56.747-29.867 89.173l23.893 259.84c6.4 70.4 25.173 145.495 162.133 145.495h544.427c136.96 0 155.305-75.095 162.133-145.495l23.893-259.84c2.987-32.425-7.68-64.853-29.865-89.173-22.615-24.747-55.040-38.827-88.747-38.827zM402.757 181.327h218.453c77.653 0 96-34.56 111.36-79.785l8.96-26.455c7.253-21.76 7.253-22.185 30.293-22.185h80.215c15.785 0 30.72 6.4 41.385 17.92 10.24 11.093 14.935 25.173 13.655 40.105l-23.895 259.84c-5.545 57.6-12.373 87.467-98.133 87.467h-545.28c-86.187 0-93.013-29.867-98.133-87.467l-23.893-259.84c-1.28-14.933 3.413-29.013 13.653-40.105 10.24-11.52 25.6-17.92 41.387-17.92h80.214c23.040 0 23.040 0.425 30.293 21.76l8.533 26.025c10.667 34.135 26.455 80.64 110.935 80.64zM170.651 586.661h-42.667c-17.493 0-32 14.505-32 32 0 17.493 14.507 32 32 32h42.667c17.493 0 32.001-14.507 32.001-32 0-17.495-14.507-32-32.001-32zM895.984 586.661h-42.667c-17.493 0-32 14.505-32 32 0 17.493 14.507 32 32 32h42.667c17.493 0 32-14.507 32-32 0-17.495-14.507-32-32-32zM511.984 714.661c-17.493 0-32 14.507-32 32v85.334c0 17.493 14.507 32 32 32s32-14.507 32-32v-85.334c0-17.493-14.507-32-32-32zM575.984 714.661h-128c-17.493 0-32 14.505-32 32 0 17.493 14.507 32 32 32h128c17.493 0 32-14.507 32-32 0-17.495-14.507-32-32-32zM383.984 287.996h-128c-17.493 0-32 14.505-32 32 0 17.493 14.507 32 32 32h128c17.493 0 32-14.507 32-32 0-17.495-14.507-32-32-32zM767.984 287.996h-128c-17.493 0-32 14.505-32 32 0 17.493 14.507 32 32 32h128c17.493 0 32-14.507 32-32 0-17.495-14.507-32-32-32z" />
<glyph unicode="&#xe95d;" d="M796.583 874.667h-81.065c-93.015 0-142.080-49.067-142.080-142.080v-81.067c0-93.013 49.065-142.080 142.080-142.080h81.065c93.015 0 142.080 49.067 142.080 142.080v81.067c0 93.013-49.065 142.080-142.080 142.080z" />
<glyph unicode="&#xe95e;" d="M308.905 386.987h-81.065c-93.44 0-142.507-49.067-142.507-142.080v-81.067c0-93.44 49.067-142.507 142.080-142.507h81.067c93.013 0 142.080 49.067 142.080 142.080v81.067c0.425 93.44-48.64 142.507-141.655 142.507z" />
<glyph unicode="&#xe95f;" d="M268.373 508.587c101.090 0 183.040 81.95 183.040 183.040s-81.95 183.040-183.040 183.040c-101.090 0-183.040-81.95-183.040-183.040s81.95-183.040 183.040-183.040z" />
<glyph unicode="&#xe960;" d="M755.629 21.333c101.090 0 183.040 81.95 183.040 183.040s-81.95 183.040-183.040 183.040c-101.090 0-183.040-81.95-183.040-183.040s81.95-183.040 183.040-183.040z" />
<glyph unicode="&#xe961;" glyph-name="category-line" d="M810.667 501.335h-85.335c-103.253 0-160 56.745-160 160v85.333c0 103.253 56.747 160 160 160h85.335c103.253 0 160-56.747 160-160v-85.333c0-103.255-56.747-160-160-160zM725.333 842.667c-67.413 0-96-28.587-96-96v-85.333c0-67.415 28.587-96 96-96h85.335c67.413 0 96 28.585 96 96v85.333c0 67.413-28.587 96-96 96h-85.335zM298.667-10.667h-85.335c-103.253 0-159.999 56.747-159.999 160v85.335c0 103.253 56.747 160 159.999 160h85.335c103.253 0 160-56.747 160-160v-85.335c0-103.253-56.747-160-160-160zM213.333 330.667c-67.413 0-95.999-28.587-95.999-96v-85.335c0-67.413 28.587-96 95.999-96h85.335c67.413 0 96 28.587 96 96v85.335c0 67.413-28.587 96-96 96h-85.335zM256 501.335c-111.787 0-202.667 90.88-202.667 202.665 0 111.787 90.88 202.667 202.667 202.667s202.667-90.88 202.667-202.667c0-111.785-90.88-202.665-202.667-202.665zM256 842.667c-76.373 0-138.667-62.293-138.667-138.667s62.293-138.665 138.667-138.665c76.373 0 138.667 62.293 138.667 138.665s-62.295 138.667-138.667 138.667zM768-10.667c-111.787 0-202.667 90.88-202.667 202.667s90.88 202.667 202.667 202.667c111.787 0 202.667-90.88 202.667-202.667s-90.88-202.667-202.667-202.667zM768 330.667c-76.373 0-138.667-62.295-138.667-138.667s62.295-138.667 138.667-138.667c76.373 0 138.667 62.295 138.667 138.667s-62.295 138.667-138.667 138.667z" />
<glyph unicode="&#xe962;" d="M690.773 874.667h-357.547c-155.306 0-247.892-92.587-247.892-247.894v-357.12c0-155.733 92.587-248.32 247.892-248.32h357.12c155.307 0 247.895 92.587 247.895 247.895v357.545c0.425 155.307-92.16 247.894-247.467 247.894z" />
<glyph unicode="&#xe963;" d="M700.581 626.773v-357.547c0-27.305-22.187-49.493-49.493-49.493-27.735 0-49.92 22.187-49.92 49.493v357.547c0 27.307 22.185 49.493 49.92 49.493 27.305 0 49.493-22.185 49.493-49.493z" />
<glyph unicode="&#xe964;" d="M422.821 408.32v-139.095c0-27.305-22.185-49.493-49.92-49.493-27.305 0-49.493 22.187-49.493 49.493v139.095c0 27.305 22.187 49.493 49.493 49.493 27.735 0 49.92-22.187 49.92-49.493z" />
<glyph unicode="&#xe965;" glyph-name="chart-line" d="M640-10.667h-256c-231.68 0-330.667 98.987-330.667 330.667v256c0 231.68 98.987 330.667 330.667 330.667h256c231.68 0 330.667-98.987 330.667-330.667v-256c0-231.68-98.987-330.667-330.667-330.667zM384 842.667c-196.693 0-266.667-69.973-266.667-266.667v-256c0-196.693 69.973-266.667 266.667-266.667h256c196.693 0 266.667 69.975 266.667 266.667v256c0 196.693-69.975 266.667-266.667 266.667h-256zM661.333 138.667c-64.853 0-117.333 52.48-117.333 117.333v384c0 64.853 52.48 117.333 117.333 117.333 64.855 0 117.335-52.48 117.335-117.333v-384c0-64.853-52.48-117.333-117.335-117.333zM661.333 693.333c-29.44 0-53.333-23.893-53.333-53.333v-384c0-29.44 23.893-53.333 53.333-53.333s53.335 23.893 53.335 53.333v384c0 29.44-23.895 53.333-53.335 53.333zM362.667 138.667c-64.855 0-117.335 52.48-117.335 117.333v149.333c0 64.855 52.48 117.335 117.335 117.335 64.853 0 117.333-52.48 117.333-117.335v-149.333c0-64.853-52.48-117.333-117.333-117.333zM362.667 458.667c-29.44 0-53.335-23.895-53.335-53.335v-149.333c0-29.44 23.895-53.333 53.335-53.333s53.333 23.893 53.333 53.333v149.333c0 29.44-23.893 53.335-53.333 53.335z" />
<glyph unicode="&#xe966;" d="M512 21.333c235.64 0 426.665 191.025 426.665 426.667 0 235.64-191.025 426.666-426.665 426.666-235.642 0-426.667-191.026-426.667-426.666 0-235.642 191.025-426.667 426.667-426.667z" />
<glyph unicode="&#xe967;" d="M670.295 280.318c-5.547 0-11.095 1.28-16.215 4.695l-132.265 78.933c-32.855 19.627-57.175 62.72-57.175 100.693v174.935c0 17.493 14.507 32 32 32 17.495 0 32-14.507 32-32v-174.935c0-15.36 12.8-37.973 26.027-45.653l132.267-78.933c15.36-8.96 20.053-28.587 11.093-43.947-6.4-10.24-17.067-15.787-27.733-15.787z" />
<glyph unicode="&#xe968;" glyph-name="clock-line" d="M512-10.667c-253.013 0-458.667 205.653-458.667 458.667s205.654 458.666 458.667 458.666 458.667-205.653 458.667-458.666c0-253.015-205.655-458.667-458.667-458.667zM512 842.666c-217.6 0-394.667-177.066-394.667-394.666s177.067-394.667 394.667-394.667c217.6 0 394.667 177.067 394.667 394.667s-177.067 394.666-394.667 394.666zM670.295 280.318c-5.547 0-11.095 1.28-16.215 4.695l-132.265 78.933c-32.855 19.627-57.175 62.72-57.175 100.693v174.935c0 17.493 14.507 32 32 32 17.495 0 32-14.507 32-32v-174.935c0-15.36 12.8-37.973 26.027-45.653l132.267-78.933c15.36-8.96 20.053-28.587 11.093-43.947-6.4-10.24-17.067-15.787-27.733-15.787z" />
<glyph unicode="&#xe969;" d="M759.040 513.282v-65.28h-673.707v65.28c0 98.987 80.64 179.627 179.627 179.627h314.453c98.987 0 179.627-80.64 179.627-179.627z" />
<glyph unicode="&#xe96a;" d="M759.040 448v-247.040c0-98.987-80.64-179.627-179.627-179.627h-314.453c-98.987 0-179.627 80.64-179.627 179.627v247.040h673.707z" />
<glyph unicode="&#xe96b;" d="M234.667 741.545c-17.493 0-32 14.505-32 32v74.667c0 17.493 14.507 32 32 32s32-14.507 32-32v-74.667c0-17.92-14.507-32-32-32z" />
<glyph unicode="&#xe96c;" d="M405.333 741.545c-17.493 0-32 14.505-32 32v74.667c0 17.493 14.507 32 32 32s32-14.507 32-32v-74.667c0-17.92-14.507-32-32-32z" />
<glyph unicode="&#xe96d;" d="M576 741.545c-17.493 0-32 14.505-32 32v74.667c0 17.493 14.507 32 32 32s32-14.507 32-32v-74.667c0-17.92-14.507-32-32-32z" />
<glyph unicode="&#xe96e;" d="M923.733 349.013c0-91.733-74.24-165.973-165.973-165.973v332.373c91.305 0 165.973-74.665 165.973-166.4z" />
<glyph unicode="&#xe96f;" glyph-name="coffee-line" d="M579.413-10.665h-314.453c-116.907 0-211.627 95.147-211.627 211.627v312.32c0 116.907 95.147 211.627 211.627 211.627h314.453c116.907 0 211.627-95.147 211.627-211.627v-312.32c0-116.48-95.147-211.627-211.627-211.627zM264.96 660.909c-81.493 0-147.627-66.135-147.627-147.627v-312.32c0-81.493 66.133-147.627 147.627-147.627h314.453c81.495 0 147.627 66.135 147.627 147.627v312.32c0 81.493-66.133 147.627-147.627 147.627h-314.453zM234.667 757.333c-17.495 0-32 14.507-32 32.001v74.667c0 17.493 14.505 32 32 32 17.493 0 32-14.507 32-32v-74.667c0-17.493-14.507-32.001-32-32.001zM405.333 757.333c-17.493 0-32 14.507-32 32.001v74.667c0 17.493 14.507 32 32 32 17.495 0 32-14.507 32-32v-74.667c0-17.493-14.505-32.001-32-32.001zM576 757.333c-17.493 0-32 14.507-32 32.001v74.667c0 17.493 14.507 32 32 32s32-14.507 32-32v-74.667c0-17.493-14.507-32.001-32-32.001zM759.040 186.882c-17.493 0-32 14.505-32 32v359.253c0 17.493 14.507 32 32 32 116.907 0 211.627-95.147 211.627-211.627s-95.147-211.625-211.627-211.625zM791.040 542.722v-288.427c66.133 14.507 115.627 73.813 115.627 144.213s-49.495 129.707-115.627 144.215zM747.093 416h-661.759c-17.493 0-32 14.507-32 32s14.507 32 32 32h661.759c17.495 0 32-14.507 32-32s-14.505-32-32-32z" />
<glyph unicode="&#xe970;" d="M928.425 280.747l-273.065 491.519c-36.695 66.133-87.467 102.4-143.36 102.4-55.895 0-106.667-36.267-143.36-102.4l-273.068-491.519c-34.56-62.72-38.4-122.88-10.667-170.24s82.347-73.387 154.027-73.387h546.133c71.68 0 126.295 26.027 154.027 73.387s23.893 107.945-10.667 170.24z" />
<glyph unicode="&#xe971;" d="M512 330.667c-17.493 0-32 14.505-32 32v213.333c0 17.493 14.507 32 32 32s32-14.507 32-32v-213.333c0-17.495-14.507-32-32-32z" />
<glyph unicode="&#xe972;" d="M512 192c-2.56 0-5.547 0.427-8.535 0.853-2.56 0.427-5.12 1.28-7.68 2.56-2.56 0.855-5.12 2.135-7.68 3.84-2.133 1.707-4.265 3.415-6.4 5.12-7.68 8.107-12.373 19.2-12.373 30.295 0 11.093 4.693 22.185 12.373 30.293 2.135 1.707 4.267 3.413 6.4 5.12 2.56 1.707 5.12 2.987 7.68 3.84 2.56 1.28 5.12 2.133 7.68 2.56 5.547 1.28 11.52 1.28 16.64 0 2.987-0.427 5.547-1.28 8.107-2.56 2.56-0.853 5.12-2.133 7.68-3.84 2.133-1.707 4.267-3.413 6.4-5.12 7.68-8.107 12.373-19.2 12.373-30.293 0-11.095-4.693-22.187-12.373-30.295-2.133-1.705-4.267-3.413-6.4-5.12-2.56-1.705-5.12-2.985-7.68-3.84-2.56-1.28-5.12-2.133-8.107-2.56-2.56-0.425-5.545-0.853-8.105-0.853z" />
<glyph unicode="&#xe973;" glyph-name="danger-line" d="M512 330.667c-17.493 0-32 14.505-32 32v213.333c0 17.493 14.507 32 32 32s32-14.507 32-32v-213.333c0-17.495-14.507-32-32-32zM512 192c-2.56 0-5.547 0.427-8.533 0.853-2.56 0.427-5.12 1.28-7.68 2.56-2.56 0.855-5.12 2.135-7.68 3.84-2.135 1.707-4.267 3.415-6.4 5.12-7.68 8.107-12.375 19.2-12.375 30.295 0 11.093 4.695 22.185 12.375 30.293 2.133 1.707 4.265 3.413 6.4 5.12 2.56 1.707 5.12 2.987 7.68 3.84 2.56 1.28 5.12 2.133 7.68 2.56 5.545 1.28 11.52 1.28 16.64 0 2.985-0.427 5.545-1.28 8.105-2.56 2.56-0.853 5.12-2.133 7.68-3.84 2.135-1.707 4.267-3.413 6.4-5.12 7.68-8.107 12.375-19.2 12.375-30.293 0-11.095-4.695-22.187-12.375-30.295-2.133-1.705-4.265-3.413-6.4-5.12-2.56-1.705-5.12-2.985-7.68-3.84-2.56-1.28-5.12-2.133-8.105-2.56-2.56-0.425-5.547-0.853-8.107-0.853zM770.558 14.505h-517.12c-83.199 0-146.772 30.293-179.199 84.907-32 54.613-27.733 125.013 12.8 197.973l258.559 465.067c42.667 76.8 101.547 119.040 166.4 119.040 64.855 0 123.735-42.24 166.4-119.040l258.56-465.495c40.535-72.96 45.227-142.933 12.8-197.973-32.425-54.187-96-84.48-179.2-84.48zM511.998 817.492c-40.105 0-79.36-30.72-110.505-86.187l-258.134-465.493c-29.013-52.055-33.707-99.84-13.653-134.4s64.427-53.335 124.16-53.335h517.12c59.733 0 103.68 18.775 124.16 53.335s15.36 81.92-13.653 134.4l-258.987 465.493c-31.147 55.467-70.4 86.187-110.507 86.187z" />
<glyph unicode="&#xe974;" d="M341.333 21.333h341.335c117.76 0 213.333 95.575 213.333 213.335v426.665c0 117.76-95.573 213.334-213.333 213.334h-341.335c-117.76 0-213.333-95.573-213.333-213.334v-426.665c0-117.76 95.573-213.335 213.333-213.335z" />
<glyph unicode="&#xe975;" d="M639.963 716.375h-256c-43.945 0-80.213-35.84-80.213-80.213v-42.667c0-43.945 35.84-80.213 80.213-80.213h256c43.947 0 80.215 35.84 80.215 80.213v42.667c0 44.373-35.84 80.213-80.215 80.213z" />
<glyph unicode="&#xe976;" d="M348.178 323.421c-5.973 0-11.52 1.28-16.64 3.413-5.12 2.135-9.813 5.12-13.653 8.96-8.107 8.107-12.8 18.775-12.8 30.295 0 5.545 1.28 11.093 3.413 16.213 2.133 5.547 5.12 9.813 9.387 14.080 9.813 9.813 24.745 14.507 38.4 11.52 2.56-0.427 5.545-1.28 8.105-2.56 2.56-0.853 5.12-2.133 7.255-3.84 2.56-1.28 4.693-3.413 6.4-5.12 3.84-4.267 7.253-8.533 9.385-14.080 2.135-5.12 2.987-10.667 2.987-16.213 0-11.52-4.267-22.187-12.373-30.295-8.107-8.105-18.775-12.373-29.867-12.373z" />
<glyph unicode="&#xe977;" d="M518.416 323.409c-11.093 0-21.76 4.267-29.865 12.373-8.107 8.107-12.8 18.775-12.8 30.295 0 11.093 4.693 22.185 12.8 30.293 15.785 15.787 44.373 15.787 60.16 0 3.84-4.267 7.253-8.533 9.385-14.080 2.135-5.12 2.987-10.667 2.987-16.213 0-11.52-4.267-22.187-12.373-30.295-8.107-8.105-18.775-12.373-30.295-12.373z" />
<glyph unicode="&#xe978;" d="M689.083 323.409c-11.095 0-21.76 4.267-29.867 12.373s-12.8 18.775-12.8 30.295c0 11.093 4.693 22.185 12.8 30.293 15.787 15.787 44.373 15.787 60.16 0 8.107-8.107 12.8-19.2 12.8-30.293 0-5.547-1.28-11.095-3.413-16.215-2.135-5.12-5.12-9.813-9.387-14.080-8.107-8.105-18.773-12.373-30.293-12.373z" />
<glyph unicode="&#xe979;" d="M348.178 152.755c-11.52 0-22.187 4.267-30.293 12.373s-12.8 18.775-12.8 30.295c0 11.093 4.693 22.185 12.8 30.293 3.84 3.84 8.533 6.827 13.653 8.96 10.667 4.267 22.187 4.267 32.853 0 2.56-0.853 5.12-2.133 7.255-3.84 2.56-1.28 4.693-3.413 6.4-5.12 8.105-8.107 12.8-19.2 12.8-30.293 0-11.52-4.695-22.187-12.8-30.295-8.107-8.105-18.775-12.373-29.867-12.373z" />
<glyph unicode="&#xe97a;" d="M518.416 152.737c-11.093 0-21.76 4.267-29.865 12.373-8.107 8.107-12.8 18.775-12.8 30.295 0 2.985 0.425 5.545 0.853 8.533 0.853 2.56 1.707 5.12 2.56 7.68 1.28 2.56 2.56 5.12 3.84 7.68 1.707 2.133 3.413 4.267 5.547 6.4 3.84 3.84 8.533 6.827 13.653 8.96 15.787 6.4 34.56 2.987 46.507-8.96 8.105-8.107 12.373-19.2 12.373-30.293 0-11.52-4.267-22.187-12.373-30.295-3.84-3.84-8.535-6.825-13.655-8.96-5.12-2.133-10.665-3.413-16.64-3.413z" />
<glyph unicode="&#xe97b;" d="M689.073 152.737c-5.545 0-11.093 1.28-16.213 3.413-5.12 2.135-9.813 5.12-13.653 8.96-8.107 8.107-12.375 18.775-12.375 30.295 0 11.093 4.267 22.185 12.375 30.293 11.52 11.947 30.72 15.36 46.505 8.96 5.12-2.133 9.815-5.12 13.655-8.96 8.105-8.107 12.373-19.2 12.373-30.293 0-11.52-4.267-22.187-12.373-30.295-8.107-8.105-18.775-12.373-30.295-12.373z" />
<glyph unicode="&#xe97c;" glyph-name="direct-line" d="M597.333-10.667h-170.665c-231.681 0-330.667 98.987-330.667 330.667v256c0 231.68 98.987 330.667 330.667 330.667h170.665c231.68 0 330.667-98.987 330.667-330.667v-256c0-231.68-98.987-330.667-330.667-330.667zM426.667 842.667c-196.695 0-266.667-69.973-266.667-266.667v-256c0-196.693 69.973-266.667 266.667-266.667h170.665c196.695 0 266.667 69.975 266.667 266.667v256c0 196.693-69.973 266.667-266.667 266.667h-170.665zM640 497.92h-256c-52.907 0-96 43.095-96 96v42.667c0 52.907 43.093 96 96 96h256c52.907 0 96-43.093 96-96v-42.667c0-52.905-43.093-96-96-96zM384 668.587c-17.493 0-32-14.507-32-32v-42.667c0-17.493 14.507-32 32-32h256c17.493 0 32 14.507 32 32v42.667c0 17.493-14.507 32-32 32h-256zM347.735 323.413c-5.547 0-11.093 1.28-16.213 3.413-5.12 2.135-9.815 5.12-13.655 8.96-8.105 8.107-12.373 18.775-12.373 30.295 0 5.545 0.853 11.093 2.987 16.213 2.133 5.547 5.12 9.813 9.385 14.080 1.707 1.707 3.84 3.84 6.4 5.12 2.135 1.707 4.695 2.987 7.255 3.84 2.56 1.28 5.545 2.133 8.105 2.56 13.655 2.987 28.587-1.707 38.4-11.52 3.84-3.84 7.255-8.533 9.387-14.080 2.133-5.12 3.413-10.667 3.413-16.213 0-11.52-4.693-22.187-12.8-30.295-8.105-8.105-18.773-12.373-30.293-12.373zM518.827 323.413c-11.52 0-22.185 4.267-30.293 12.375-8.107 8.105-12.373 18.773-12.373 30.293 0 5.547 0.853 11.093 2.985 16.213 2.135 5.547 5.12 9.815 9.387 14.080 1.707 1.707 3.84 3.84 6.4 5.12 2.133 1.707 4.693 2.987 7.253 3.84 2.56 1.28 5.547 2.135 8.107 2.56 8.107 1.707 16.64 0.855 24.747-2.56 5.12-2.133 9.813-5.12 13.653-8.96 3.84-4.265 7.253-8.533 9.387-14.080 2.133-5.12 3.413-10.665 3.413-16.213 0-11.52-4.693-22.187-12.8-30.293s-18.773-12.375-29.867-12.375zM689.067 323.413c-5.545 0-11.093 1.28-16.213 3.415-5.12 2.133-9.813 5.12-13.653 8.96-4.267 4.265-7.255 8.96-9.387 14.080s-2.987 10.665-2.987 16.213c0 5.547 0.855 11.093 2.987 16.213 2.133 5.547 5.12 9.815 9.387 14.080 15.785 15.787 44.373 15.787 60.16 0 8.105-8.105 12.8-19.2 12.8-30.293 0-11.52-4.695-22.187-12.8-30.293-7.68-7.68-18.347-12.375-30.295-12.375zM348.16 152.747c-11.52 0-22.185 4.265-30.293 12.373s-12.8 18.773-12.8 30.293c0 11.095 4.693 22.187 12.8 30.295 1.707 1.705 4.267 3.84 6.4 5.12 2.133 1.705 4.693 2.985 7.253 3.84 2.56 1.28 5.547 2.133 8.107 2.56 14.080 2.56 28.587-1.707 38.4-11.52 2.133-2.135 3.84-4.267 5.547-6.4 1.28-2.56 2.56-5.12 3.84-7.68 0.853-2.56 1.705-5.12 2.56-7.68 0.425-2.987 0.853-5.547 0.853-8.535 0-11.52-4.693-22.185-12.8-30.293s-18.773-12.373-29.867-12.373zM518.827 152.747c-11.52 0-22.185 4.265-30.293 12.373s-12.8 18.773-12.8 30.293c0 11.095 4.693 22.187 12.8 30.295 9.813 9.813 24.747 14.080 38.4 11.52 2.56-0.427 5.547-1.28 8.107-2.56 2.56-0.855 5.12-2.135 7.253-3.84 2.133-1.28 4.267-3.415 6.4-5.12 8.107-8.107 12.373-19.2 12.373-30.295 0-11.52-4.265-22.185-12.373-30.293s-18.773-12.373-29.867-12.373zM689.067 152.745c-11.093 0-21.76 4.267-29.865 12.375-8.107 8.105-12.375 18.773-12.375 30.293 0 11.093 4.267 22.187 12.375 30.293 3.84 3.84 8.533 6.827 13.653 8.96 15.787 6.4 34.987 2.987 46.507-8.96 8.105-8.105 12.373-19.2 12.373-30.293 0-11.52-4.267-22.187-12.373-30.293-3.84-3.84-8.535-6.827-13.655-8.96-5.12-2.135-10.665-3.415-16.64-3.415z" />
<glyph unicode="&#xe97d;" d="M635.731 874.667h-247.465c-29.013 0-69.975-17.067-90.455-37.547l-174.932-174.933c-20.48-20.48-37.547-61.44-37.547-90.455v-247.465c0-29.013 17.067-69.973 37.547-90.453l174.932-174.935c20.48-20.48 61.442-37.545 90.455-37.545h247.465c29.015 0 69.975 17.065 90.455 37.545l174.933 174.935c20.48 20.48 37.547 61.44 37.547 90.453v247.465c0 29.015-17.067 69.975-37.547 90.455l-174.933 174.933c-20.48 20.48-61.44 37.547-90.455 37.547z" />
<glyph unicode="&#xe97e;" d="M557.221 448l126.722 126.72c12.373 12.373 12.373 32.853 0 45.227-12.375 12.373-32.855 12.373-45.227 0l-126.72-126.72-126.72 126.72c-12.373 12.373-32.853 12.373-45.227 0-12.373-12.375-12.373-32.855 0-45.227l126.72-126.72-126.72-126.72c-12.373-12.373-12.373-32.853 0-45.227 6.4-6.4 14.507-9.385 22.615-9.385 8.105 0 16.213 2.985 22.613 9.385l126.72 126.72 126.72-126.72c6.4-6.4 14.507-9.385 22.613-9.385s16.215 2.985 22.615 9.385c12.373 12.375 12.373 32.855 0 45.227l-126.722 126.72z" />
<glyph unicode="&#xe97f;" glyph-name="error-line" d="M635.733-10.665h-247.465c-37.975 0-86.615 20.053-113.067 46.933l-174.933 174.933c-26.88 26.88-46.934 75.52-46.934 113.067v247.465c0 37.975 20.054 86.615 46.934 113.067l174.933 174.933c26.88 26.88 75.52 46.934 113.067 46.934h247.465c37.973 0 86.615-20.054 113.067-46.934l174.933-174.933c26.88-26.88 46.933-75.52 46.933-113.067v-247.465c0-37.973-20.053-86.613-46.933-113.067l-174.933-174.933c-26.88-26.88-75.095-46.933-113.067-46.933zM388.267 842.667c-20.907 0-53.335-13.227-67.842-28.16l-174.932-174.934c-14.507-14.933-28.16-46.933-28.16-67.84v-247.465c0-20.907 13.227-53.333 28.16-67.84l174.932-174.933c14.935-14.507 46.935-28.16 67.842-28.16h247.465c20.907 0 53.335 13.225 67.84 28.16l174.933 174.933c14.507 14.933 28.16 46.933 28.16 67.84v247.465c0 20.907-13.225 53.335-28.16 67.84l-174.933 174.934c-14.933 14.507-46.933 28.16-67.84 28.16h-247.465zM362.663 266.667c-8.107 0-16.213 2.985-22.613 9.385-12.373 12.375-12.373 32.855 0 45.227l298.667 298.667c12.373 12.373 32.853 12.373 45.225 0 12.373-12.375 12.373-32.855 0-45.227l-298.667-298.667c-6.4-6.4-14.505-9.385-22.613-9.385zM661.331 266.667c-8.107 0-16.213 2.985-22.613 9.385l-298.667 298.667c-12.373 12.373-12.373 32.853 0 45.227s32.853 12.373 45.225 0l298.667-298.667c12.373-12.373 12.373-32.853 0-45.227-6.4-6.4-14.505-9.385-22.613-9.385z" />
<glyph unicode="&#xe980;" d="M512 21.333c235.64 0 426.665 191.025 426.665 426.667s-191.025 426.667-426.665 426.667c-235.642 0-426.667-191.025-426.667-426.667s191.025-426.667 426.667-426.667z" />
<glyph unicode="&#xe981;" d="M557.225 448l98.135 98.135c12.373 12.373 12.373 32.853 0 45.225-12.375 12.375-32.855 12.375-45.227 0l-98.133-98.133-98.135 98.133c-12.373 12.375-32.853 12.375-45.225 0-12.375-12.373-12.375-32.853 0-45.225l98.133-98.135-98.133-98.133c-12.375-12.373-12.375-32.853 0-45.227 6.4-6.4 14.505-9.385 22.613-9.385s16.213 2.985 22.613 9.385l98.135 98.135 98.133-98.135c6.4-6.4 14.507-9.385 22.613-9.385s16.215 2.985 22.615 9.385c12.373 12.375 12.373 32.855 0 45.227l-98.135 98.133z" />
<glyph unicode="&#xe982;" glyph-name="exit-line" d="M301.038 192c-11.447 0-22.896 4.218-31.933 13.255-17.473 17.475-17.473 46.395 0 63.868l421.772 421.772c17.473 17.473 46.393 17.473 63.868 0 17.473-17.473 17.473-46.395 0-63.868l-421.772-421.772c-9.039-9.037-20.486-13.255-31.935-13.255zM722.81 192c-11.447 0-22.896 4.218-31.933 13.255l-421.772 421.772c-17.473 17.473-17.473 46.395 0 63.868s46.395 17.473 63.868 0l421.772-421.772c17.473-17.473 17.473-46.393 0-63.868-9.039-9.037-20.486-13.255-31.935-13.255z" />
<glyph unicode="&#xe983;" d="M898.558 455.682l-6.827 9.385c-11.945 14.507-26.025 26.027-42.24 34.56-21.76 12.375-46.505 18.775-72.105 18.775h-531.2c-25.6 0-49.921-6.4-72.107-18.775-16.64-8.96-31.573-21.333-43.947-36.693-24.32-31.147-35.84-69.547-32-107.947l15.787-199.253c5.547-60.16 12.8-134.4 148.053-134.4h500.055c135.253 0 142.080 74.24 148.053 134.827l15.787 198.4c3.84 35.84-5.547 71.68-27.307 101.12zM613.971 220.162h-204.373c-16.64 0-29.867 13.653-29.867 29.865 0 16.215 13.227 29.867 29.867 29.867h204.373c16.64 0 29.867-13.653 29.867-29.867 0-16.64-13.227-29.865-29.867-29.865z" />
<glyph unicode="&#xe984;" d="M144.214 477.44c9.387 8.533 18.773 16.213 29.867 22.185 21.76 12.375 46.507 18.775 72.107 18.775h531.627c25.6 0 49.92-6.4 72.105-18.775 11.095-5.973 20.907-13.653 29.867-22.613v64c0 152.32-46.507 198.827-198.827 198.827h-101.545c-18.775 0-19.2 0.425-30.295 14.933l-51.2 68.693c-24.32 31.573-43.52 51.2-104.533 51.2h-50.347c-152.319 0-198.826-46.507-198.826-198.826v-198.4z" />
<glyph unicode="&#xe985;" glyph-name="folder-open-line" d="M780.371-10.667h-536.745c-145.068 0-152.748 79.787-159.148 144.213l-17.067 213.76c-3.84 41.387 8.107 82.775 34.56 116.055 31.573 38.4 76.373 59.305 124.587 59.305h570.88c47.36 0 92.16-20.905 122.453-57.173l7.255-9.813c23.040-31.575 33.28-69.975 29.44-108.8l-17.067-212.907c-6.4-64.853-14.080-144.64-159.147-144.64zM226.558 458.665c-28.587 0-55.894-12.8-73.814-34.985l-2.987-2.987c-13.653-17.493-20.907-42.24-18.347-67.84l17.067-213.76c5.973-62.293 8.533-85.76 95.148-85.76h536.745c87.040 0 89.175 23.467 95.147 86.187l17.067 213.76c2.56 25.173-4.695 50.345-21.335 69.973l-4.265 5.12c-19.2 20.053-43.52 30.293-69.975 30.293h-570.453zM874.667 438.611c-17.495 0-32 14.507-32 32v76.375c0 127.145-22.187 149.333-149.335 149.333h-108.8c-48.213 0-64.853 17.067-83.2 41.387l-55.040 72.959c-18.773 24.747-23.040 30.72-61.44 30.72h-54.185c-127.147 0-149.334-22.187-149.334-149.334v-219.733c0-17.493-14.507-32-32-32s-32 14.507-32 32v219.733c0 163.414 49.92 213.334 213.334 213.334h54.613c65.707 0 86.187-21.333 112.64-56.32l54.613-72.533c11.52-15.361 12.375-16.213 32.427-16.213h108.8c163.413 0 213.333-49.92 213.333-213.333v-76.375c-0.425-17.493-14.933-32-32.425-32zM621.655 202.665h-219.305c-17.495 0-32 14.507-32 32 0 17.495 14.505 32 32 32h219.305c17.495 0 32-14.505 32-32 0-17.493-14.080-32-32-32z" />
<glyph unicode="&#xe986;" d="M852.053 533.335v-341.335c0-128-42.667-170.665-170.667-170.665h-341.333c-128 0-170.667 42.665-170.667 170.665v341.335h682.667z" />
<glyph unicode="&#xe987;" d="M917.335 661.333v-42.667c0-46.933-22.615-85.333-85.335-85.333h-640c-65.28 0-85.333 38.4-85.333 85.333v42.667c0 46.933 20.053 85.333 85.333 85.333h640c62.72 0 85.335-38.4 85.335-85.333z" />
<glyph unicode="&#xe988;" d="M496.64 746.667h-235.52c-14.505 15.785-14.080 40.106 1.28 55.466l60.587 60.587c15.787 15.787 41.813 15.787 57.6 0l116.053-116.053z" />
<glyph unicode="&#xe989;" d="M762.453 746.667h-235.52l116.053 116.053c15.787 15.787 41.815 15.787 57.6 0l60.587-60.587c15.36-15.36 15.787-39.681 1.28-55.466z" />
<glyph unicode="&#xe98a;" d="M381.438 533.335v-219.307c0-34.133 37.545-54.187 66.133-35.84l40.107 26.453c14.505 9.387 32.853 9.387 46.933 0l37.973-25.6c28.16-18.773 66.135 1.28 66.135 35.415v218.88h-257.28z" />
<glyph unicode="&#xe98b;" glyph-name="gift-line" d="M681.385-10.665h-341.333c-145.921 0-202.667 56.745-202.667 202.665v341.335c0 17.493 14.507 32 32 32h682.667c17.493 0 32-14.507 32-32v-341.335c0-145.92-56.747-202.665-202.667-202.665zM201.385 501.335v-309.335c0-110.080 28.587-138.665 138.667-138.665h341.333c110.080 0 138.667 28.585 138.667 138.665v309.335h-618.667zM832 501.333h-640c-74.667 0-117.333 42.667-117.333 117.333v42.667c0 74.667 42.667 117.333 117.333 117.333h640c72.533 0 117.333-44.801 117.333-117.333v-42.667c0-72.533-44.8-117.333-117.333-117.333zM192 714.665c-38.827 0-53.333-14.505-53.333-53.333v-42.667c0-38.825 14.507-53.333 53.333-53.333h640c37.547 0 53.333 15.787 53.333 53.333v42.667c0 37.547-15.785 53.333-53.333 53.333h-640zM496.638 714.665h-235.52c-8.96 0-17.493 3.84-23.465 10.24-26.027 28.587-25.175 72.533 2.133 99.84l60.587 60.587c28.16 28.16 74.665 28.16 102.825 0l116.055-116.053c8.96-8.961 11.945-23.041 6.825-34.986-4.693-11.947-16.213-19.627-29.44-19.627zM284.585 778.665h135.253l-61.865 61.44c-3.415 3.413-8.96 3.413-12.375 0l-60.585-60.587c0-0.427-0.427-0.427-0.427-0.853zM762.453 714.665h-235.52c-12.8 0-24.747 7.68-29.44 19.627-5.12 11.945-2.135 25.6 6.825 34.986l116.055 116.053c28.16 28.16 74.665 28.16 102.825 0l60.587-60.587c27.307-27.307 28.587-71.252 2.133-99.84-5.973-6.4-14.505-10.24-23.465-10.24zM604.585 778.665h135.253c-0.425 0.427-0.425 0.427-0.853 0.853l-60.587 60.587c-3.413 3.413-8.96 3.413-12.373 0l-61.44-61.44zM424.103 238.935c-11.945 0-24.32 2.985-35.413 8.96-24.32 13.225-39.253 38.4-39.253 65.705v219.735c0 17.493 14.505 32 32 32h257.705c17.495 0 32-14.507 32-32v-218.88c0-27.735-14.933-52.907-39.253-65.707-24.32-13.227-53.76-11.52-76.8 3.84l-37.973 25.6c-3.415 2.56-8.107 2.56-11.947 0l-40.107-26.453c-12.373-8.535-26.88-12.8-40.96-12.8zM413.438 501.335v-187.307c0-5.547 3.413-8.107 5.545-9.387 2.135-1.28 6.4-2.56 11.095 0.427l40.105 26.453c25.175 16.64 57.6 16.64 82.347 0l37.973-25.6c4.695-2.985 8.96-1.705 11.095-0.425 2.133 1.28 5.545 3.84 5.545 9.385v186.88h-193.705v-0.425z" />
<glyph unicode="&#xe98c;" d="M938.665 589.229c0-50.775-8.105-97.707-22.185-141.227h-808.96c-14.080 43.52-22.187 90.453-22.187 141.227 0 131.84 106.24 238.506 237.227 238.506 77.225 0 146.345-37.547 189.44-95.146 43.093 57.6 112.213 95.146 189.44 95.146 130.985 0 237.225-106.666 237.225-238.506z" />
<glyph unicode="&#xe98d;" d="M916.48 448c-67.413-213.333-275.2-340.907-378.025-375.893-14.507-5.12-38.4-5.12-52.907 0-102.827 34.985-310.613 162.56-378.027 375.893h808.96z" />
<glyph unicode="&#xe98e;" glyph-name="heart-line" d="M512 36.269c-13.227 0-26.027 1.705-36.693 5.545-162.987 55.895-421.974 254.295-421.974 547.415 0 149.333 120.747 270.506 269.227 270.506 72.107 0 139.52-28.16 189.44-78.507 49.92 50.347 117.333 78.507 189.44 78.507 148.48 0 269.227-121.601 269.227-270.506 0-293.547-258.987-491.52-421.975-547.415-10.665-3.84-23.465-5.545-36.693-5.545zM322.56 795.736c-113.067 0-205.227-92.586-205.227-206.506 0-291.415 280.319-453.547 378.879-487.255 7.68-2.56 24.32-2.56 32 0 98.135 33.707 378.88 195.415 378.88 487.255 0 113.92-92.16 206.506-205.225 206.506-64.855 0-125.015-30.293-163.84-82.774-11.947-16.213-39.255-16.213-51.2 0-39.68 52.907-99.415 82.774-164.267 82.774z" />
<glyph unicode="&#xe98f;" d="M855.040 669.015l-245.76 171.947c-66.987 46.933-169.815 44.373-234.24-5.547l-213.76-166.826c-42.667-33.28-76.373-101.547-76.373-155.307v-294.4c0-108.8 88.32-197.547 197.119-197.547h459.947c108.8 0 197.12 88.32 197.12 197.12v289.28c0 57.6-37.12 128.427-84.053 161.28z" />
<glyph unicode="&#xe990;" d="M512 160c-17.493 0-32 14.507-32 32v128c0 17.493 14.507 32 32 32s32-14.507 32-32v-128c0-17.493-14.507-32-32-32z" />
<glyph unicode="&#xe991;" glyph-name="home-2-line" d="M759.040-10.669h-494.080c-116.907 0-211.627 95.147-211.627 212.055v316.16c0 58.025 35.84 130.985 81.92 166.825l229.974 179.201c69.12 53.76 179.625 56.32 251.305 5.973l263.68-184.747c50.775-35.413 90.455-111.36 90.455-173.227v-310.613c0-116.48-94.72-211.627-211.627-211.627zM404.48 813.225l-229.973-179.199c-30.293-23.895-57.173-78.080-57.173-116.48v-316.16c0-81.495 66.133-148.055 147.627-148.055h494.080c81.493 0 147.627 66.135 147.627 147.627v310.613c0 40.96-29.44 97.707-63.147 120.747l-263.68 184.747c-48.64 34.133-128.853 32.427-175.36-3.84zM512 160c-17.493 0-32 14.507-32 32v128c0 17.493 14.507 32 32 32s32-14.507 32-32v-128c0-17.493-14.507-32-32-32z" />
<glyph unicode="&#xe992;" d="M512 21.333c235.64 0 426.665 191.025 426.665 426.667s-191.025 426.667-426.665 426.667c-235.642 0-426.667-191.025-426.667-426.667s191.025-426.667 426.667-426.667z" />
<glyph unicode="&#xe993;" d="M512 373.333c17.493 0 32 14.507 32 32v213.335c0 17.493-14.507 32-32 32s-32-14.507-32-32v-213.335c0-17.493 14.507-32 32-32z" />
<glyph unicode="&#xe994;" d="M551.253 293.547c-2.133 5.12-5.12 9.813-8.96 14.080-4.267 3.84-8.96 6.825-14.080 8.96-10.24 4.265-22.187 4.265-32.427 0-5.12-2.135-9.813-5.12-14.080-8.96-3.84-4.267-6.825-8.96-8.96-14.080-2.133-5.12-3.413-10.667-3.413-16.215 0-5.545 1.28-11.093 3.413-16.213 2.135-5.547 5.12-9.813 8.96-14.080 4.267-3.84 8.96-6.827 14.080-8.96s10.667-3.413 16.215-3.413c5.545 0 11.093 1.28 16.213 3.413s9.813 5.12 14.080 8.96c3.84 4.267 6.827 8.533 8.96 14.080 2.133 5.12 3.413 10.667 3.413 16.213 0 5.547-1.28 11.095-3.413 16.215z" />
<glyph unicode="&#xe995;" glyph-name="info-line" d="M512-10.667c-253.013 0-458.667 205.655-458.667 458.667s205.654 458.667 458.667 458.667c253.013 0 458.667-205.654 458.667-458.667s-205.655-458.667-458.667-458.667zM512 842.667c-217.6 0-394.667-177.067-394.667-394.667s177.067-394.667 394.667-394.667c217.6 0 394.667 177.067 394.667 394.667s-177.067 394.667-394.667 394.667zM512 373.333c-17.493 0-32 14.507-32 32v213.335c0 17.493 14.507 32 32 32s32-14.507 32-32v-213.335c0-17.493-14.507-32-32-32zM512 234.667c-5.547 0-11.093 1.28-16.213 3.413s-9.815 5.12-14.080 8.96c-3.84 4.267-6.827 8.533-8.96 14.080-2.135 5.12-3.415 10.667-3.415 16.213 0 5.547 1.28 11.095 3.415 16.215 2.133 5.12 5.12 9.813 8.96 14.080 4.265 3.84 8.96 6.825 14.080 8.96 10.24 4.265 22.185 4.265 32.425 0 5.12-2.135 9.815-5.12 14.080-8.96 3.84-4.267 6.827-8.96 8.96-14.080 2.135-5.12 3.415-10.667 3.415-16.215 0-5.545-1.28-11.093-3.415-16.213-2.133-5.547-5.12-9.813-8.96-14.080-4.265-3.84-8.96-6.827-14.080-8.96s-10.665-3.413-16.213-3.413z" />
<glyph unicode="&#xe996;" d="M690.773 874.668h-357.547c-155.306 0-247.892-92.587-247.892-247.894v-357.12c0-155.733 92.587-248.32 247.892-248.32h357.12c155.307 0 247.895 92.587 247.895 247.893v357.547c0.425 155.307-92.16 247.894-247.467 247.894z" />
<glyph unicode="&#xe997;" d="M512 282.455c91.429 0 165.547 74.118 165.547 165.547 0 91.427-74.118 165.545-165.547 165.545s-165.547-74.118-165.547-165.545c0-91.429 74.118-165.547 165.547-165.547z" />
<glyph unicode="&#xe998;" d="M725.335 640c-11.52 0-22.187 4.265-30.295 12.373-3.84 4.267-6.825 8.96-8.96 14.080-2.133 5.12-3.413 10.667-3.413 16.213s1.28 11.095 3.413 16.215c2.135 5.545 5.12 9.813 8.96 14.080 9.815 9.813 24.747 14.505 38.4 11.52 2.987-0.427 5.547-1.28 8.107-2.56 2.56-0.855 5.12-2.135 7.68-3.84 2.133-1.28 4.267-3.415 6.4-5.12 3.84-4.267 6.827-8.535 8.96-14.080 2.133-5.12 3.413-10.667 3.413-16.215 0-5.545-1.28-11.093-3.413-16.213s-5.12-9.813-8.96-14.080c-4.267-3.84-8.96-6.827-14.080-8.96s-10.667-3.413-16.213-3.413z" />
<glyph unicode="&#xe999;" glyph-name="instagram-line" d="M640-10.665h-256c-231.68 0-330.667 98.987-330.667 330.667v256c0 231.68 98.987 330.666 330.667 330.666h256c231.68 0 330.667-98.987 330.667-330.666v-256c0-231.68-98.987-330.667-330.667-330.667zM384 842.668c-196.693 0-266.667-69.973-266.667-266.666v-256c0-196.695 69.973-266.667 266.667-266.667h256c196.693 0 266.667 69.973 266.667 266.667v256c0 196.693-69.975 266.666-266.667 266.666h-256zM512 266.665c-99.84 0-181.333 81.493-181.333 181.333s81.493 181.335 181.333 181.335c99.84 0 181.333-81.495 181.333-181.335s-81.493-181.333-181.333-181.333zM512 565.333c-64.853 0-117.333-52.48-117.333-117.335 0-64.853 52.48-117.333 117.333-117.333s117.333 52.48 117.333 117.333c0 64.855-52.48 117.335-117.333 117.335zM725.333 640c-5.545 0-11.093 1.28-16.213 3.413s-9.813 5.12-14.080 8.96c-3.84 4.267-7.253 8.96-9.387 14.080s-2.985 10.667-2.985 16.213c0 5.547 0.853 11.095 2.985 16.215 2.56 5.545 5.547 9.813 9.387 14.080 2.133 1.705 4.267 3.84 6.4 5.12 2.56 1.705 5.12 2.985 7.68 3.84 2.56 1.28 5.12 2.133 8.107 2.56 13.653 2.985 28.16-1.707 38.4-11.52 3.84-4.267 6.825-8.535 8.96-14.080 2.133-5.12 3.413-10.667 3.413-16.215 0-5.545-1.28-11.093-3.413-16.213-2.135-5.12-5.12-9.813-8.96-14.080-4.267-3.84-8.96-6.827-14.080-8.96s-10.667-3.413-16.215-3.413z" />
<glyph unicode="&#xe99a;" d="M776.96 333.227h-529.92c-70.827 0-113.494 55.895-94.72 124.16l93.866 344.748c10.667 39.68 53.76 72.533 94.72 72.533h342.187c40.96 0 84.053-32.853 94.72-72.533l93.867-344.748c18.773-68.265-23.895-124.16-94.72-124.16z" />
<glyph unicode="&#xe99b;" d="M714.665 53.333c0-17.493-14.505-32-32-32h-341.333c-17.493 0-32 14.507-32 32s14.507 32 32 32h138.667v247.893h64v-247.893h138.665c17.495 0 32-14.507 32-32z" />
<glyph unicode="&#xe99c;" glyph-name="lamp-line" d="M776.96 301.227h-529.92c-43.947 0-82.773 17.92-106.667 49.067s-30.72 73.387-19.2 115.627l93.867 344.746c14.507 53.76 69.973 96 125.867 96h341.76c55.893 0 110.933-42.24 125.865-96l93.867-344.746c11.52-42.24 4.693-84.48-19.2-115.627s-62.293-49.067-106.24-49.067zM340.907 842.668c-26.88 0-57.175-23.040-64-49.067l-93.867-344.747c-6.4-23.040-3.413-44.373 8.533-60.16s31.574-23.893 55.467-23.893h529.92c23.893 0 43.947 8.533 55.467 23.893s14.933 36.693 8.533 60.16l-93.867 344.747c-7.253 26.027-37.12 49.067-64 49.067h-342.185zM512-10.667c-17.493 0-32 14.507-32 32v298.667c0 17.493 14.507 32 32 32s32-14.507 32-32v-298.667c0-17.493-14.507-32-32-32zM682.667-10.667h-341.335c-17.493 0-32 14.505-32 32 0 17.493 14.507 32 32 32h341.335c17.493 0 32-14.507 32-32 0-17.495-14.507-32-32-32z" />
<glyph unicode="&#xe99d;" d="M879.785 599.465c-44.8 197.12-216.745 285.866-367.785 285.866 0 0 0 0-0.427 0-150.613 0-322.987-88.32-367.787-285.439-49.92-220.16 84.907-406.615 206.934-523.947 45.225-43.52 103.253-65.28 161.28-65.28 58.025 0 116.053 21.76 160.853 65.28 122.027 117.333 256.853 303.36 206.933 523.52z" />
<glyph unicode="&#xe99e;" d="M511.998 385.709c74.228 0 134.4 60.174 134.4 134.4 0 74.228-60.172 134.4-134.4 134.4-74.226 0-134.4-60.172-134.4-134.4 0-74.226 60.174-134.4 134.4-134.4z" />
<glyph unicode="&#xe99f;" glyph-name="location-line" d="M512 355.417c-90.88 0-165.12 73.815-165.12 165.12 0 91.307 74.24 164.695 165.12 164.695s165.12-73.815 165.12-165.12c0-91.307-74.24-164.695-165.12-164.695zM512 621.231c-55.467 0-101.12-45.227-101.12-101.12 0-55.895 45.227-101.12 101.12-101.12s101.12 45.225 101.12 101.12c0 55.893-45.653 101.12-101.12 101.12zM512.002-11.093c-63.145 0-126.72 23.895-176.213 71.255-125.867 121.173-264.96 314.453-212.48 544.425 47.36 208.641 229.548 302.081 388.693 302.081 0 0 0 0 0.427 0 159.147 0 341.333-93.44 388.693-302.506 52.055-229.975-87.040-422.827-212.905-544-49.495-47.36-113.067-71.255-176.215-71.255zM512.002 842.668c-124.16 0-283.733-66.133-325.973-252.161-46.080-200.96 80.213-374.185 194.56-483.84 73.813-71.253 189.44-71.253 263.253 0 113.92 109.655 240.215 282.88 194.987 483.84-42.667 186.028-202.667 252.161-326.827 252.161z" />
<glyph unicode="&#xe9a0;" d="M788.053 241.92l16.64-134.825c4.267-35.413-33.705-60.158-64-41.813l-178.773 106.24c-19.627 0-38.827 1.278-57.6 3.838 31.573 37.12 50.347 84.057 50.347 134.829 0 121.173-104.96 219.305-234.667 219.305-49.493 0-95.147-14.080-133.12-38.827-1.28 10.667-1.707 21.335-1.707 32.427 0 194.135 168.534 351.574 376.747 351.574s376.747-157.439 376.747-351.574c0-115.2-59.307-217.175-150.615-281.175z" />
<glyph unicode="&#xe9a1;" d="M554.665 310.185c0-50.773-18.773-97.707-50.345-134.827-42.24-51.2-109.227-84.053-184.32-84.053l-111.36-66.133c-18.774-11.52-42.667 4.265-40.107 26.025l10.667 84.053c-57.173 39.68-93.867 103.255-93.867 174.935 0 75.095 40.107 141.225 101.547 180.48 37.973 24.745 83.626 38.825 133.12 38.825 129.705 0 234.665-98.131 234.665-219.305z" />
<glyph unicode="&#xe9a2;" glyph-name="messages-line" d="M762.457 26.882c-13.227 0-26.453 3.413-38.4 10.665l-171.093 101.547c-17.92 0.427-35.84 1.705-52.907 4.265-11.52 1.707-21.333 9.389-25.6 20.482s-2.133 23.040 5.547 32c28.16 32.853 42.665 72.105 42.665 113.92 0 103.253-90.88 187.307-202.665 187.307-41.815 0-81.92-11.522-115.627-33.709-9.387-5.973-20.907-6.825-31.147-2.133-9.813 4.693-17.066 14.082-18.346 25.175-1.28 11.947-2.133 23.893-2.133 36.265 0 211.627 183.467 383.573 408.747 383.573s408.747-171.946 408.747-383.573c0-116.053-53.762-222.72-148.48-295.68l14.505-116.055c3.415-29.013-9.385-56.32-33.705-72.107-11.947-7.68-26.027-11.943-40.107-11.943zM561.069 203.522c5.975 0.425 11.947-1.282 17.067-4.697l178.773-106.238c4.695-2.987 8.535-1.707 11.095 0 2.133 1.28 5.545 4.693 4.693 10.665l-16.64 134.829c-1.28 11.945 3.84 23.465 13.227 30.291 87.040 61.015 136.96 154.029 136.96 255.149 0 176.213-154.455 319.573-344.747 319.573-183.040 0-333.227-133.122-344.32-300.375 32 12.373 66.56 19.2 102.4 19.2 147.2 0 266.667-112.638 266.667-251.305 0.425-37.545-8.535-73.813-25.175-107.093zM195.404-10.669c-11.093 0-21.76 2.985-31.573 9.385-19.2 12.375-29.44 33.707-26.88 56.322l8.533 65.707c-57.6 46.933-91.734 116.48-91.734 189.44 0 83.2 43.521 160.853 116.481 207.36 43.947 28.587 96 43.945 150.187 43.945 147.2 0 266.665-112.638 266.665-251.305 0-56.32-20.48-111.787-58.025-155.735-48.215-58.453-120.32-92.585-199.68-95.145l-104.107-61.867c-9.387-5.547-19.627-8.107-29.867-8.107zM319.99 497.491c-41.813 0-81.92-11.52-115.627-33.705-54.613-34.987-87.039-92.16-87.039-153.6 0-59.305 29.013-113.495 80.214-148.482 9.813-6.825 14.933-18.345 13.653-30.291l-9.387-72.962 101.975 60.587c5.12 2.985 10.665 4.695 16.213 4.695 62.72 0 122.027 26.878 159.573 72.531 28.162 33.28 43.095 72.537 43.095 114.349 0 102.827-90.88 186.878-202.667 186.878z" />
<glyph unicode="&#xe9a3;" d="M85.333 406.613v255.147c0 117.759 95.573 212.906 213.332 212.906h426.667c117.76 0 213.333-95.147 213.333-212.906v-297.815c0-117.333-95.573-212.48-213.333-212.48h-64c-13.227 0-26.027-6.4-34.133-17.065l-64-84.907c-28.16-37.547-74.24-37.547-102.4 0l-64 84.907c-6.827 9.385-22.187 17.065-34.135 17.065h-64c-117.759 0-213.332 95.147-213.332 212.48v42.667z" />
<glyph unicode="&#xe9a4;" d="M725.335 586.665h-426.667c-17.493 0-32 14.507-32 32 0 17.495 14.507 32 32 32h426.667c17.493 0 32-14.505 32-32 0-17.493-14.507-32-32-32z" />
<glyph unicode="&#xe9a5;" d="M554.667 373.335h-256c-17.493 0-32 14.505-32 32 0 17.493 14.507 32 32 32h256c17.493 0 32-14.507 32-32 0-17.495-14.507-32-32-32z" />
<glyph unicode="&#xe9a6;" glyph-name="message-text-line" d="M512-13.227c-29.44 0-57.173 14.933-76.8 40.96l-64 85.333c-1.28 1.707-6.4 3.84-8.533 4.267h-21.335c-177.919 0-287.999 48.213-287.999 288v213.333c0 188.587 99.413 288.001 287.999 288.001h341.335c188.585 0 288-99.413 288-288.001v-213.333c0-188.587-99.415-288-288-288h-21.335c-3.413 0-6.4-1.707-8.533-4.267l-64-85.333c-19.627-26.027-47.36-40.96-76.8-40.96zM341.333 842.666c-152.746 0-223.999-71.253-223.999-224.001v-213.333c0-192.853 66.133-224 223.999-224h21.335c21.76 0 46.505-12.373 59.733-29.867l64-85.333c14.933-19.627 36.267-19.627 51.2 0l64 85.333c14.080 18.775 36.267 29.867 59.733 29.867h21.335c152.745 0 224 71.253 224 224v213.333c0 152.747-71.255 224.001-224 224.001h-341.335zM725.333 586.665h-426.665c-17.495 0-32 14.507-32 32 0 17.495 14.505 32 32 32h426.665c17.495 0 32-14.505 32-32 0-17.493-14.505-32-32-32zM554.667 373.335h-256c-17.495 0-32 14.505-32 32 0 17.493 14.505 32 32 32h256c17.493 0 32-14.507 32-32 0-17.495-14.507-32-32-32z" />
<glyph unicode="&#xe9a7;" d="M938.665 642.987v-256c0-64-21.333-117.335-58.88-154.882-37.12-37.12-90.453-58.453-154.453-58.453v-90.88c0-34.133-37.973-54.615-66.133-35.842l-189.867 126.722h-90.453c3.413 12.8 5.12 26.027 5.12 39.68 0 43.52-16.64 83.625-43.947 113.92-30.72 34.985-76.373 56.747-126.72 56.747-47.786 0-91.306-19.627-122.453-51.627-3.84 17.065-5.547 35.415-5.547 54.615v256c0 127.999 85.333 213.332 213.332 213.332h426.667c128 0 213.333-85.333 213.333-213.332z" />
<glyph unicode="&#xe9a8;" d="M661.335 480h-298.667c-17.493 0-32 14.507-32 32s14.507 32 32 32h298.667c17.493 0 32-14.507 32-32s-14.507-32-32-32z" />
<glyph unicode="&#xe9a9;" d="M213.335 384c-40.108 0-77.228-14.080-106.668-37.547-39.253-31.145-64-79.36-64-133.12 0-94.293 76.373-170.665 170.668-170.665 43.093 0 82.347 16.213 112.64 42.665 35.413 31.147 58.025 76.8 58.025 128 0 94.295-76.373 170.667-170.665 170.667zM256 202.667c0-11.095-5.973-21.762-15.358-27.307l-53.334-32c-5.12-2.987-10.667-4.693-16.641-4.693-10.667 0-21.334 5.545-27.307 15.358-8.96 15.36-4.266 34.989 11.094 43.949l37.974 22.611v46.082c0 17.493 14.507 32 32 32s32-14.507 32-32v-64h-0.427z" />
<glyph unicode="&#xe9aa;" glyph-name="message-time-line" d="M682.656 7.684c-14.505 0-28.585 4.265-40.958 12.371l-181.762 121.175h-80.638c-9.815 0-19.202 4.693-25.175 12.373-5.975 8.107-8.105 18.347-5.545 27.735 2.56 10.24 3.84 20.48 3.84 31.573 0 34.135-12.8 66.985-35.84 92.585-26.027 29.44-63.147 46.082-102.827 46.082-37.973 0-72.961-14.933-99.414-41.813-8.107-8.533-20.48-11.52-31.573-8.535-11.093 3.415-20.053 12.375-22.613 23.895-4.267 18.773-6.4 39.253-6.4 61.44v256c0 146.773 98.56 245.333 245.333 245.333h426.667c146.773 0 245.333-98.56 245.333-245.333v-256c0-71.255-23.467-132.693-68.267-177.493-37.545-37.547-87.465-60.162-145.065-66.135v-60.587c0-27.733-15.362-52.905-39.682-66.133-11.52-5.547-23.465-8.533-35.413-8.533zM415.99 205.657h53.333c6.4 0 12.375-1.707 17.92-5.547l189.867-126.72c4.693-2.987 8.533-1.705 10.665-0.425 2.135 1.28 5.975 3.84 5.975 9.813v90.88c0 17.495 14.507 32 32 32 54.187 0 99.84 17.065 131.84 49.065 32.425 32.427 49.493 78.082 49.493 132.269v256c0 110.080-71.253 181.332-181.333 181.332h-426.667c-110.079 0-181.333-71.252-181.333-181.332v-250.882c29.013 15.787 61.867 23.895 96 23.895 58.027 0 113.067-24.747 150.613-67.415 33.28-37.12 52.055-84.905 52.055-135.253-0.427-2.56-0.427-5.12-0.427-7.68zM213.333 10.667c-111.786 0-202.666 90.88-202.666 202.665 0 62.295 27.733 119.895 75.947 158.295 35.84 28.587 81.067 44.373 126.719 44.373 111.787 0 202.667-90.88 202.667-202.667 0-58.025-25.173-113.493-69.12-151.893-37.12-32.853-84.48-50.773-133.547-50.773zM213.333 352c-31.572 0-61.439-10.665-86.612-30.718-32.853-26.027-52.053-65.709-52.053-107.949 0-76.373 62.293-138.665 138.666-138.665 33.28 0 65.707 12.373 91.735 34.56 29.865 26.453 46.933 64 46.933 104.105 0 76.375-62.293 138.667-138.667 138.667zM170.662 138.665c-10.667 0-21.334 5.547-27.307 15.36-8.96 15.36-4.266 34.987 11.094 43.947l37.974 22.613v46.080c0 17.495 14.506 32 32.001 32 17.493 0 32-14.505 32-32v-64c0-11.093-5.975-21.76-15.362-27.307l-53.333-32c-5.973-3.413-11.52-4.693-17.067-4.693zM661.333 480h-298.665c-17.495 0-32 14.507-32 32s14.505 32 32 32h298.665c17.495 0 32-14.507 32-32s-14.505-32-32-32z" />
<glyph unicode="&#xe9ab;" d="M690.773 874.668h-357.547c-155.306 0-247.892-92.587-247.892-247.894v-357.12c0-155.733 92.587-248.32 247.892-248.32h357.12c155.307 0 247.895 92.587 247.895 247.893v357.547c0.425 155.307-92.16 247.894-247.467 247.894z" />
<glyph unicode="&#xe9ac;" d="M768 416h-512c-17.493 0-32 14.507-32 32s14.507 32 32 32h512c17.493 0 32-14.507 32-32s-14.507-32-32-32z" />
<glyph unicode="&#xe9ad;" d="M512 21.335c235.64 0 426.665 191.025 426.665 426.667s-191.025 426.666-426.665 426.666c-235.642 0-426.667-191.024-426.667-426.666s191.025-426.667 426.667-426.667z" />
<glyph unicode="&#xe9ae;" d="M679.253 416h-341.333c-17.495 0-32 14.507-32 32s14.505 32 32 32h341.333c17.493 0 32-14.507 32-32s-14.080-32-32-32z" />
<glyph unicode="&#xe9af;" glyph-name="minus-cirlce-line" d="M508.587-10.665c-252.587 0-458.667 205.655-458.667 458.667s206.080 458.666 458.667 458.666c252.585 0 458.665-205.654 458.665-458.666s-205.653-458.667-458.665-458.667zM508.587 842.668c-217.6 0-394.667-177.066-394.667-394.666s177.067-394.667 394.667-394.667c217.6 0 394.665 177.067 394.665 394.667s-177.065 394.666-394.665 394.666zM679.253 416h-341.333c-17.493 0-32 14.507-32 32s14.507 32 32 32h341.333c17.495 0 32-14.507 32-32s-14.080-32-32-32z" />
<glyph unicode="&#xe9b0;" glyph-name="minus-line" d="M768 416h-512c-17.493 0-32 14.507-32 32s14.507 32 32 32h512c17.493 0 32-14.507 32-32s-14.507-32-32-32z" />
<glyph unicode="&#xe9b1;" d="M716.8 874.668h-451.84c-98.987 0-179.2-80.213-179.2-178.774v-271.787c0-98.985 80.213-178.773 178.773-178.773h153.6c23.467 0 42.667-19.2 42.667-42.665v-34.987c0-23.467-19.2-42.667-42.667-42.667h-96c-16.64 0-30.293-13.653-30.293-30.293s13.653-30.293 30.293-30.293h338.347c16.64 0 30.293 13.653 30.293 30.293s-13.653 30.293-30.293 30.293h-96c-23.467 0-42.667 19.2-42.667 42.667v34.987c0 23.465 19.2 42.665 42.667 42.665h152.32c98.985 0 178.773 80.213 178.773 178.773v271.787c0 98.56-80.213 178.774-178.773 178.774z" />
<glyph unicode="&#xe9b2;" d="M837.973 554.667h-225.705c-73.815 0-100.695-26.88-100.695-101.545v-329.815c0-75.093 26.455-101.545 100.695-101.545h225.705c73.815 0 100.695 26.88 100.695 101.545v329.815c0 75.093-26.455 101.545-100.695 101.545zM725.333 93.015c-26.025 0-46.933 20.907-46.933 46.933 0 26.027 20.907 46.935 46.933 46.935 26.027 0 46.935-20.907 46.935-46.935 0-26.025-20.907-46.933-46.935-46.933z" />
<glyph unicode="&#xe9b3;" d="M772.267 139.947c0-26.027-20.907-46.935-46.935-46.935-26.025 0-46.933 20.907-46.933 46.935 0 26.025 20.907 46.933 46.933 46.933 26.027 0 46.935-21.333 46.935-46.933z" />
<glyph unicode="&#xe9b4;" glyph-name="monitor-mobbile-line" d="M426.667 204.8h-161.707c-162.133 0-211.627 49.493-211.627 211.625v256c0 162.134 49.493 211.628 211.627 211.628h449.28c162.133 0 211.627-49.493 211.627-211.628 0-17.493-14.507-32-32-32-17.495 0-32 14.507-32 32 0 125.441-22.187 147.628-147.627 147.628h-449.28c-125.44 0-147.627-22.187-147.627-147.628v-256c0-125.44 22.187-147.625 147.627-147.625h161.707c17.493 0 32-14.507 32-32 0-17.495-14.507-32-32-32zM426.667 11.945c-17.495 0-32 14.507-32 32v193.28c0 17.495 14.505 32 32 32 17.493 0 32-14.505 32-32v-193.28c0-17.92-14.507-32-32-32zM426.667 375.467h-341.334c-17.493 0-32 14.505-32 32 0 17.493 14.507 32 32 32h341.334c17.493 0 32-14.507 32-32 0-17.495-14.507-32-32-32zM426.667 11.947h-139.095c-17.493 0-32 14.507-32 32s14.507 32 32 32h139.095c17.493 0 32-14.507 32-32s-14.507-32-32-32zM812.373 11.945h-151.465c-118.187 0-158.295 40.107-158.295 158.293v243.627c0 118.187 40.107 158.293 158.295 158.293h151.465c118.187 0 158.295-40.105 158.295-158.293v-243.627c0-118.613-40.107-158.293-158.295-158.293zM660.907 508.158c-83.627 0-94.295-10.665-94.295-94.293v-243.627c0-83.625 10.667-94.293 94.295-94.293h151.465c83.627 0 94.295 10.667 94.295 94.293v243.627c0 83.627-10.667 94.293-94.295 94.293h-151.465zM738.133 150.615c-11.093 0-22.185 4.265-30.293 12.373-3.84 3.84-6.827 8.533-8.96 13.653-2.133 5.547-3.413 11.095-3.413 16.64 0 11.095 4.693 22.187 12.373 29.867 9.813 9.813 24.747 14.507 38.827 11.947 2.56-0.855 5.12-1.707 7.68-2.56 2.56-1.28 5.12-2.56 7.253-3.84 2.56-1.707 4.693-3.415 6.827-5.547 7.68-7.68 12.373-18.773 12.373-29.867 0-5.545-1.28-11.093-3.413-16.64-2.135-5.12-5.12-9.813-8.96-13.653-2.135-2.133-4.267-3.84-6.827-5.12-2.133-1.707-4.693-2.987-7.253-4.267-2.56-0.853-5.12-1.705-7.68-2.133-2.987-0.853-5.547-0.853-8.535-0.853z" />
</font>
</defs>
</svg>
