<svg width="24" height="25" viewBox="0 0 24 25" fill="none" xmlns="http://www.w3.org/2000/svg">
<path d="M21.0697 5.73C19.4597 5.57 17.8497 5.45 16.2297 5.36V5.35L16.0097 4.05C15.8597 3.13 15.6397 1.75 13.2997 1.75H10.6797C8.34967 1.75 8.12967 3.07 7.96967 4.04L7.75967 5.32C6.82967 5.38 5.89967 5.44 4.96967 5.53L2.92967 5.73C2.50967 5.77 2.20967 6.14 2.24967 6.55C2.28967 6.96 2.64967 7.26 3.06967 7.22L5.10967 7.02C10.3497 6.5 15.6297 6.7 20.9297 7.23C20.9597 7.23 20.9797 7.23 21.0097 7.23C21.3897 7.23 21.7197 6.94 21.7597 6.55C21.7897 6.14 21.4897 5.77 21.0697 5.73Z" fill="#F04438"/>
<path opacity="0.3991" d="M19.2297 8.64C18.9897 8.39 18.6597 8.25 18.3197 8.25H5.67975C5.33975 8.25 4.99975 8.39 4.76975 8.64C4.53975 8.89 4.40975 9.23 4.42975 9.58L5.04975 19.84C5.15975 21.36 5.29975 23.26 8.78975 23.26H15.2097C18.6997 23.26 18.8398 21.37 18.9497 19.84L19.5697 9.59C19.5897 9.23 19.4597 8.89 19.2297 8.64Z" fill="#F04438"/>
<path fill-rule="evenodd" clip-rule="evenodd" d="M9.58008 17.5C9.58008 17.0858 9.91586 16.75 10.3301 16.75H13.6601C14.0743 16.75 14.4101 17.0858 14.4101 17.5C14.4101 17.9142 14.0743 18.25 13.6601 18.25H10.3301C9.91586 18.25 9.58008 17.9142 9.58008 17.5Z" fill="#F04438"/>
<path fill-rule="evenodd" clip-rule="evenodd" d="M8.75 13.5C8.75 13.0858 9.08579 12.75 9.5 12.75H14.5C14.9142 12.75 15.25 13.0858 15.25 13.5C15.25 13.9142 14.9142 14.25 14.5 14.25H9.5C9.08579 14.25 8.75 13.9142 8.75 13.5Z" fill="#F04438"/>
</svg>
