<svg width="162" height="124" viewBox="0 0 162 124" fill="none" xmlns="http://www.w3.org/2000/svg">
<path d="M40.6243 79.0989C40.4384 79.4416 40.2695 79.5795 40.1132 79.6768C39.9164 79.7932 39.7225 80.0124 39.5389 80.2731C39.403 80.4532 39.2796 80.5927 39.1386 80.7521C38.8179 80.8231 38.5029 81.0998 38.1827 81.3557C37.7517 81.7105 37.3207 82.0653 36.9073 82.4001C36.8897 82.42 36.867 82.4192 36.8493 82.4391C36.2728 83.1175 35.6746 83.3432 35.0872 83.7953C34.8023 84.0113 34.5248 84.166 34.2377 84.4641C34.1319 84.5837 34.0284 84.6212 33.9124 84.6993C33.5417 84.9329 33.1732 85.0844 32.8024 85.318C32.4897 85.5126 32.1866 85.5637 31.871 85.6554C31.7675 85.6929 31.6589 85.7097 31.5605 85.7679C30.9702 86.1171 30.4197 86.2624 29.8516 86.4275C29.0765 86.6676 28.3213 86.8057 27.5838 86.9239C26.874 87.0636 26.2194 87.0613 25.5598 87.0384C24.7636 87.0108 23.9623 86.9624 23.1911 86.8534C22.7941 86.7986 22.4148 86.7238 22.0554 86.547C21.825 86.4363 21.5646 86.3861 21.3394 86.2961C20.894 86.1368 20.4538 85.9984 20.0437 85.7993C19.6337 85.6001 19.231 85.3397 18.8334 85.0999C18.5422 84.9254 18.2459 84.7302 17.9547 84.5558C17.9217 84.5136 17.8762 84.512 17.8432 84.4698C17.0321 83.7432 16.2159 82.996 15.3923 82.31C14.5357 81.5819 13.757 80.7126 13.0312 79.7836C12.4601 79.0243 11.9367 78.1845 11.3656 77.4252C10.4771 76.203 9.76708 74.6994 9.04457 73.2364C8.62984 72.3798 8.26797 71.4635 7.88337 70.5463C7.62622 69.9623 7.42198 69.3183 7.20008 68.6944C7.13124 68.5071 7.00434 68.359 6.9355 68.1717C6.86153 67.9638 6.84558 67.7167 6.78924 67.4888C6.62308 66.9079 6.45182 66.3062 6.2504 65.7652C6.01087 65.1611 5.89472 64.4177 5.69043 63.7738C5.35811 62.612 5.13663 61.3513 4.8748 60.1098C4.84919 60.0062 4.84122 59.8827 4.79798 59.799C4.45887 58.8834 4.31365 57.7486 4.10304 56.7143C4.05182 56.5071 4.05862 56.2608 4.02503 56.0337C3.99655 55.8273 3.9732 55.6416 3.94472 55.4352C3.82633 54.7738 3.69032 54.1323 3.56678 53.4501C3.4871 53.0365 3.38464 52.6222 3.39307 52.109C3.3976 51.9448 3.339 51.7989 3.3259 51.6547C3.28432 51.3041 3.25527 50.9128 3.21369 50.5621C3.20058 50.4179 3.18747 50.2737 3.16185 50.1701C2.99389 49.0345 2.9243 47.8407 2.81434 46.666C2.72545 45.7592 2.69457 44.8132 2.6108 43.927C2.52991 43.1437 2.47176 42.3611 2.48412 41.4989C2.50446 40.7601 2.46676 40.0604 2.49223 39.3423C2.5296 38.3988 2.50901 37.4942 2.48837 36.5897C2.47964 35.4597 2.48854 34.3097 2.61344 33.0815C2.66225 32.5492 2.65303 32.0559 2.70185 31.5235C2.75518 30.827 2.82614 30.1105 2.87435 29.3933C2.95209 28.4306 3.00709 27.4671 3.08483 26.5043C3.16257 25.5416 3.24031 24.5789 3.33567 23.5963C3.40151 22.8591 3.52537 22.0828 3.59634 21.3663C3.66729 20.6498 3.76099 19.9342 3.88995 19.1787C4.06606 18.1577 4.1438 17.195 4.19879 16.2315C4.21521 15.8418 4.27713 15.4537 4.39193 15.0058C4.71869 13.682 4.92435 12.4156 5.08449 11.1476C5.1782 10.4319 5.34016 9.71863 5.51973 8.9854C5.72433 8.17087 5.91127 7.37625 5.98961 6.59842C6.02652 6.29159 6.09871 5.94487 6.19362 5.59898C6.36356 5.00919 6.44758 4.437 6.49128 3.88392C6.5202 3.45356 6.56678 3.00328 6.60821 2.53229C6.48076 2.1992 6.37605 1.86692 6.11783 1.7347C5.97111 1.68852 5.90227 1.50127 5.86867 1.27416C5.8402 1.06776 5.79412 0.881248 5.75314 0.715492C5.65703 0.691616 5.56599 0.688476 5.46986 0.664597C5.43974 0.725175 5.40451 0.765022 5.39713 0.826376C5.1829 1.78436 4.98631 2.72244 4.76696 3.65971C4.6374 4.23035 4.50271 4.78025 4.47152 5.29269C4.45962 5.51824 4.38973 5.78282 4.31471 6.0267C4.20217 6.39253 4.15272 6.74002 4.10331 7.08751C4.0221 7.76253 3.89544 8.43599 3.68799 9.1477C3.46293 9.87935 3.28335 10.6125 3.09865 11.3251C3.06115 11.447 3.0236 11.569 3.02134 11.6511C2.97087 12.4504 2.75889 13.3263 2.7539 14.1273C2.75797 14.5998 2.68133 15.1107 2.54664 15.6606C2.43697 16.1292 2.37278 16.5994 2.26312 17.068C2.17845 17.4554 2.13926 17.8443 2.03184 18.2309C1.86703 18.8414 1.78296 19.4136 1.7569 19.9467C1.72346 20.5413 1.70761 21.1159 1.67416 21.7104C1.66061 22.2029 1.62431 22.6946 1.50725 23.2246C1.3203 24.0192 1.31245 24.7174 1.21136 25.4944C1.11539 26.2922 1.19852 26.9934 1.12018 27.7713C1.07649 28.3244 1.03282 28.8774 0.98913 29.4305C0.986865 29.5126 0.984598 29.5947 0.95958 29.676C0.737367 30.5105 0.752286 31.2093 0.754697 31.9489C0.761018 32.3394 0.691724 32.7889 0.640051 33.2184C0.566228 33.8321 0.550409 34.4067 0.597713 34.9629C0.605705 35.0865 0.613682 35.21 0.616551 35.3128C0.596202 36.0516 0.575854 36.7903 0.573136 37.5092C0.561832 37.9196 0.58581 38.2901 0.609757 38.6607C0.647422 39.3604 0.67256 40.1008 0.715345 40.8212C0.71308 40.9032 0.710839 40.9853 0.703451 41.0467C0.626316 42.1943 0.700413 43.224 0.756892 44.2735C0.794558 44.9732 0.80949 45.6721 0.882402 46.3319C0.984388 47.383 1.06872 48.4541 1.28671 49.4271C1.42274 50.0686 1.55877 50.7101 1.51855 51.5509C1.50152 51.7557 1.5425 51.9215 1.58348 52.0872C1.79694 53.2244 2.02293 54.3208 2.2364 55.458C2.27512 55.7058 2.29106 55.9529 2.31214 56.2207C2.3355 56.4064 2.3361 56.5912 2.37708 56.757C2.73169 58.5564 3.06869 60.3757 3.44094 62.1551C3.61282 62.9416 3.85522 63.6485 4.06235 64.3951C4.07771 64.4573 4.09308 64.5194 4.10845 64.5816C4.27461 65.1625 4.44079 65.7434 4.6297 66.3251C4.80326 66.8447 4.97679 67.3642 5.15546 67.9045C5.27553 68.2989 5.41832 68.6942 5.55601 69.0687C5.72443 69.5675 5.89287 70.0664 6.08405 70.566C6.2957 71.1485 6.50733 71.731 6.75424 72.2736C7.15135 73.1501 7.5485 74.0266 7.94561 74.9031C8.22039 75.4673 8.45254 76.1326 8.84557 76.5366C8.87857 76.5788 8.91154 76.621 8.92179 76.6625C9.3058 77.3947 9.68978 78.127 10.0738 78.8593C10.1119 78.9222 10.1324 79.0051 10.1654 79.0473C10.4799 79.4074 10.6586 79.9478 10.9856 80.2672C11.1074 80.3947 11.1814 80.6027 11.2855 80.7501C11.6894 81.3803 12.0881 81.9898 12.5699 82.479C12.575 82.4997 12.5977 82.5005 12.6029 82.5213C12.8873 82.942 13.1894 83.3427 13.5392 83.663C13.7496 83.8757 13.9123 84.1689 14.1279 84.4024C14.5744 84.9314 15.0459 85.3791 15.5402 85.8277C16.2728 86.5104 17.0532 87.1127 17.8159 87.7348C17.8438 87.7563 17.8666 87.7571 17.8944 87.7786C18.1106 88.197 18.5025 88.2311 18.8392 88.4071C18.9962 88.4947 19.1531 88.5824 19.2925 88.6899C19.8777 89.1416 20.488 89.512 21.1938 89.7214C22.1703 90.0223 23.1468 90.3233 24.1233 90.6243C24.1739 90.6466 24.2297 90.6896 24.2928 90.6712C24.99 90.5722 25.5747 90.839 26.2844 90.6993C26.5193 90.6458 26.7343 90.6944 26.9441 90.7222C27.245 90.7532 27.5759 90.7236 27.9018 90.6733C28.4449 90.5895 28.963 90.5869 29.5487 90.4019C29.9047 90.291 30.2459 90.3029 30.6019 90.192C31.2155 90.0284 31.8415 89.8243 32.4574 89.5786C32.8714 89.4287 33.3001 89.156 33.7266 88.9654C34.0093 88.8314 34.2794 88.7381 34.562 88.6041C34.7059 88.5475 34.8446 88.4702 34.9833 88.3928C35.846 87.8682 36.691 87.3634 37.5684 86.7161C37.7196 86.5981 37.8936 86.4809 38.0551 86.4043C38.3554 86.2504 38.663 86.0351 38.9678 85.7171C38.9854 85.6971 39.003 85.6772 39.0207 85.6573C39.6007 85.2666 40.1675 84.7318 40.7321 84.2789C40.843 84.1801 40.9414 84.1219 41.0449 84.0844C41.1257 84.0461 41.199 84.0692 41.2673 84.0715C41.3543 84.4238 41.4488 84.7146 41.5131 85.066C41.557 85.3346 41.578 85.6024 41.6219 85.8709C41.6737 86.263 41.7307 86.6758 41.8001 87.048C41.9083 87.6679 42.0568 88.2687 42.1474 88.9086C42.2043 89.3214 42.4199 89.5549 42.4114 90.0681C42.4155 90.5407 42.5305 90.9144 42.605 91.3073C42.6847 91.7209 42.7593 92.1138 42.8566 92.5074C42.9385 92.8389 43.033 93.1298 43.1326 93.4413C43.1736 93.6071 43.2145 93.7728 43.2504 93.9179C43.3864 94.5593 43.5276 95.2216 43.646 95.883C43.7308 96.3173 43.8383 96.7524 43.976 97.127C44.2258 97.7724 44.4227 98.4776 44.6549 99.143C44.8182 99.6211 44.9991 100.079 45.1851 100.558C45.4536 100.732 45.531 101.227 45.7517 101.482C45.7899 101.545 45.8456 101.588 45.861 101.65C46.0118 102.168 46.1677 102.708 46.3185 103.227C46.3492 103.351 46.3799 103.475 46.4283 103.58C46.6598 104.06 46.9039 104.5 47.1531 104.961C47.2447 105.149 47.3311 105.316 47.4227 105.504C47.5422 105.714 47.6315 105.984 47.7686 106.173C48.0098 106.51 48.1805 106.927 48.3688 107.324C48.5469 107.679 48.6948 108.095 49.0161 108.209C49.0946 108.253 49.143 108.357 49.209 108.442C49.4376 108.82 49.6612 109.177 49.8899 109.554C49.9331 109.638 49.9764 109.722 50.0321 109.765C50.3006 109.938 50.4155 110.312 50.5657 110.646C50.7159 110.98 50.8837 111.294 51.1044 111.548C51.3479 111.803 51.5737 112.078 51.7517 112.433C51.9628 112.831 52.2393 113.128 52.4981 113.445C52.8229 113.846 53.1727 114.167 53.4798 114.588C54.3428 115.707 55.3438 116.563 56.3022 117.521C56.6014 117.819 56.8881 118.157 57.2351 118.375C57.7896 118.702 58.2134 119.23 58.7503 119.578C59.4897 120.014 60.2415 120.41 60.9861 120.867C61.5457 121.215 62.1554 121.401 62.7276 121.708C62.8061 121.752 62.8845 121.796 62.9755 121.799C63.4254 121.794 63.7774 122.032 64.1596 122.21C64.4355 122.322 64.7113 122.435 65.0048 122.527C65.1288 122.572 65.2527 122.618 65.3818 122.684C65.5843 122.773 65.7743 122.903 66.0319 122.85C66.0951 122.832 66.1633 122.834 66.219 122.877C66.6444 123.139 67.1677 123.157 67.6659 123.256C67.9263 123.306 68.2169 123.296 68.4575 123.448C68.5639 123.513 68.718 123.498 68.8596 123.524C69.3248 123.581 69.8077 123.618 70.3155 123.574C70.4469 123.558 70.5657 123.583 70.6846 123.608C71.1043 123.663 71.5541 123.658 71.9915 123.694C72.588 123.735 73.2323 123.696 73.8664 123.615C74.3288 123.57 74.7963 123.545 75.2637 123.52C75.7084 123.494 76.1429 123.427 76.6002 123.361C76.7088 123.344 76.835 123.308 76.9612 123.271C77.0926 123.255 77.2365 123.198 77.3553 123.223C77.8785 123.241 78.3966 123.239 78.9846 122.972C79.0477 122.953 79.116 122.955 79.1791 122.937C79.7273 122.874 80.2806 122.832 80.8465 122.749C81.2986 122.662 81.7507 122.575 82.2153 122.447C83.0814 122.21 83.935 122.014 84.8135 121.736C85.6921 121.459 86.5906 121.079 87.459 120.76C87.7239 120.646 87.9764 120.572 88.2466 120.479C88.5116 120.365 88.7766 120.251 89.0416 120.137C89.2662 120.042 89.5033 119.907 89.7154 119.852C90.3819 119.629 91.0529 119.241 91.7165 118.915C91.9991 118.781 92.2766 118.627 92.5592 118.493C92.8595 118.339 93.1597 118.185 93.4724 117.99C94.0928 117.581 94.711 117.253 95.3467 116.905C96.1616 116.461 96.9861 115.873 97.8231 115.245C98.0323 115.088 98.2592 114.911 98.4685 114.754C99.2122 114.205 99.9486 113.717 100.672 113.085C101.284 112.551 101.915 112.183 102.537 111.506C102.912 111.108 103.32 110.753 103.704 110.479C104.006 110.243 104.306 109.904 104.603 109.647C105.536 108.858 106.43 107.821 107.354 106.908C108.77 105.519 110.158 104.109 111.548 102.617C111.8 102.359 112.044 102.162 112.296 101.903C112.765 101.427 113.246 100.909 113.704 100.391C113.951 100.112 114.175 99.8325 114.437 99.6156C114.624 99.4578 114.817 99.2385 115.011 99.0193C115.241 98.7602 115.447 98.5004 115.676 98.2413C116.807 97.0687 117.945 95.8347 119.061 94.5999C119.542 94.0826 120.025 93.4831 120.501 92.945C121.365 91.9685 122.185 90.9084 123.028 89.849C123.907 88.7498 124.793 87.5892 125.666 86.4692C126.575 85.3094 127.427 84.1065 128.298 82.8838C128.949 81.9615 129.619 81.0194 130.265 80.0764C130.383 79.9162 130.502 79.756 130.597 79.595C131.185 78.5062 131.892 77.6269 132.551 76.6433C132.848 76.2017 133.135 75.7187 133.409 75.2763C133.504 75.1153 133.577 74.9535 133.66 74.8331C134.09 74.2935 134.45 73.6487 134.819 73.0453C135.219 72.3813 135.651 71.7596 136.028 71.0948C136.549 70.1886 137.064 69.2616 137.584 68.3553C137.823 67.9528 138.067 67.571 138.288 67.1884C139.042 65.8589 139.808 64.4887 140.557 63.1385C140.76 62.7758 140.941 62.4124 141.122 62.0489C141.742 60.8175 142.362 59.586 143 58.3347C143.5 57.3455 143.959 56.3755 144.431 55.3648C144.885 54.3741 145.39 53.4057 145.867 52.4157C146.296 51.5063 146.703 50.5961 147.127 49.666C147.418 49.0188 147.732 48.3723 148.023 47.7252C148.467 46.693 148.928 45.6409 149.372 44.6087C149.598 44.062 149.829 43.5359 150.065 43.0306C150.291 42.8536 150.426 42.9404 150.572 42.9866C150.944 43.1228 151.294 43.2582 151.746 43.1712C151.877 43.1552 151.983 43.2205 152.09 43.2858C152.649 43.6339 153.289 43.7588 153.954 43.8025C154.323 43.8358 154.68 43.9098 155.011 44.0651C155.366 44.2212 155.775 44.2355 156.172 44.2903C156.382 44.3182 156.609 44.3261 156.819 44.3539C156.893 44.377 156.966 44.4 157.022 44.4431C157.222 44.6143 157.467 44.6023 157.747 44.5505C158.073 44.5001 158.392 44.5112 158.693 44.5422C159.307 44.5636 159.941 44.4828 160.593 44.3822C160.855 44.3503 161.117 44.1335 161.377 43.8138C161.548 43.5938 161.651 43.3714 161.705 43.0447C161.618 42.5076 161.595 41.8701 161.422 41.3505C161.243 40.8102 161.233 40.132 161.276 39.394C161.296 39.1071 161.297 38.8402 161.259 38.5923C161.23 38.3859 161.224 38.1803 161.236 37.9548C161.29 37.2583 161.227 36.6398 161.194 35.9609C160.933 35.5409 160.872 34.8405 160.764 34.2205C160.671 33.6627 160.614 33.065 160.556 32.4673C160.502 31.9724 160.482 31.4377 160.427 30.9428C160.341 30.1387 160.407 29.2166 160.379 28.3735C160.364 27.6746 160.366 26.9558 160.253 26.3151C160.168 25.8808 160.131 25.3659 160.082 24.8918C160.038 24.6232 159.982 24.3953 159.885 24.1865C159.788 23.9778 159.757 23.6686 159.69 23.3992C159.652 23.1514 159.636 22.9044 159.614 22.6366C159.549 21.9154 159.483 21.1942 159.423 20.4937C159.379 20.0402 159.369 19.547 159.36 19.0537C159.358 18.499 159.437 17.906 159.602 17.2955C159.627 17.2142 159.629 17.1322 159.649 17.0301C159.611 16.9672 159.596 16.905 159.54 16.862C159.479 16.7983 159.383 16.7744 159.305 16.7306C158.823 16.4263 158.264 16.2631 157.826 15.8576C157.676 15.7086 157.474 15.6194 157.234 15.6522C157.08 15.6673 156.958 15.5399 156.801 15.4523C156.501 15.6062 156.165 15.7999 155.807 15.9929C155.551 16.6002 155.361 17.292 155.024 17.7528C154.775 17.929 154.583 18.0661 154.379 18.2439C153.739 18.7557 153.104 19.4731 152.472 20.1084C152.255 20.3269 152.061 20.5461 151.865 20.8474C151.77 21.0084 151.641 21.1272 151.518 21.2667C151.125 21.6844 150.714 22.122 150.321 22.5397C150.163 22.7191 150.009 22.9192 149.853 23.0164C149.51 23.2716 149.226 23.6725 148.936 24.0527C148.866 24.1324 148.806 24.2536 148.735 24.3333C148.324 24.7709 147.967 25.3337 147.618 25.835C147.155 26.5174 146.682 27.1583 146.242 27.8414C145.749 28.5843 145.266 29.3686 144.784 30.1529C144.492 30.6152 144.223 31.0783 143.936 31.5613C143.662 32.0037 143.416 32.4676 143.203 32.9737C142.909 33.3332 142.665 33.7151 142.469 34.2012C142.256 34.7074 141.975 35.2111 141.673 35.6319C141.222 36.2736 140.843 37.0205 140.537 37.7904C140.427 38.0742 140.317 38.3578 140.224 38.6216C140.215 38.95 140.36 39.0783 140.486 39.2265C140.712 39.5014 140.943 39.7969 141.181 40.0312C141.608 40.4773 142.099 40.8231 142.701 40.8851C143.302 40.947 143.836 41.1915 144.378 41.3747C144.626 41.4654 144.866 41.6176 145.164 41.5458C145.21 41.5473 145.255 41.5489 145.306 41.5712C145.547 41.7233 145.82 41.7329 146.098 41.7631C146.285 41.7901 146.437 41.857 146.511 42.065C146.488 42.2491 146.433 42.391 146.345 42.4906C146.151 42.7098 146.023 43.0134 145.895 43.3171C145.76 43.6821 145.62 44.0265 145.437 44.472C145.397 44.6761 145.332 44.9614 145.278 45.2881C145.072 45.7329 144.831 46.2175 144.613 46.7029C144.424 47.1277 144.219 47.5725 144.053 47.9981C143.68 48.9505 143.223 49.8384 142.793 50.7478C142.557 51.2532 142.271 51.7363 142.063 52.2631C141.787 52.9725 141.446 53.5973 141.142 54.2851C140.924 54.7705 140.705 55.2559 140.431 55.6983C140.414 55.7182 140.401 55.7589 140.384 55.7788C140.048 56.6093 139.605 57.3746 139.236 58.1628C139.073 58.5064 138.91 58.8499 138.729 59.2133C138.501 59.6573 138.244 60.0798 137.919 60.315C137.779 60.6593 137.61 60.982 137.488 61.3064C137.352 61.6715 137.166 62.0142 136.937 62.2733C136.761 62.4726 136.6 62.734 136.485 62.9971C136.151 63.7455 135.751 64.4094 135.374 65.0742C135.297 65.2153 135.231 65.3157 135.176 65.4576C134.961 66.0458 134.669 66.5081 134.354 66.9696C134.158 67.2709 133.967 67.5929 133.809 67.9571C133.601 68.484 133.287 68.9455 132.957 69.3449C132.592 69.7841 132.293 70.3078 131.989 70.8108C131.863 71.0323 131.732 71.2332 131.584 71.454C131.199 71.9952 130.87 72.5795 130.561 73.2466C130.253 73.9137 129.893 74.5586 129.453 75.0568C129.118 75.4354 128.775 75.8754 128.456 76.3162C128.172 76.7172 127.938 77.1404 127.775 77.6688C127.35 78.2292 126.89 78.8294 126.469 79.4105C126.268 79.6911 126.06 80.033 125.863 80.3343C125.511 80.9178 125.162 81.4191 124.756 81.8775C124.316 82.3757 123.857 82.8939 123.519 83.6216C123.416 83.844 123.25 84.0847 123.104 84.2234C122.612 84.6993 122.185 85.3418 121.765 85.9229C121.528 86.2433 121.279 86.6044 121.048 86.9455C120.965 87.0659 120.882 87.1862 120.811 87.266C120.376 87.7849 119.917 88.3031 119.482 88.822C119.17 89.2014 118.875 89.5609 118.586 89.9411C118.243 90.3811 117.868 90.7789 117.516 91.1775C116.828 91.9547 116.161 92.8148 115.464 93.5506C115.376 93.6502 115.287 93.7499 115.199 93.8495C114.799 94.3286 114.381 94.8276 113.95 95.1824C113.706 95.3793 113.464 95.679 113.212 95.9373C112.93 96.2561 112.646 96.6571 112.338 96.8723C112.298 96.8915 112.268 96.952 112.232 96.9919C111.488 97.9931 110.666 98.6834 109.895 99.581C109.754 99.7405 109.608 99.8792 109.475 99.9772C109.271 100.155 109.084 100.313 108.9 100.574C108.817 100.694 108.724 100.773 108.636 100.872C108.034 101.447 107.427 102.001 106.835 102.617C106.53 102.936 106.228 103.356 105.886 103.796C105.414 104.17 104.872 104.624 104.366 105.223C104.102 105.522 103.8 105.757 103.515 105.974C103.288 106.151 103.089 106.349 102.888 106.63C102.769 106.79 102.646 106.929 102.535 107.028C101.678 107.758 100.821 108.489 99.9848 109.302C99.8739 109.401 99.7755 109.459 99.6595 109.537C99.183 109.89 98.7014 110.223 98.2153 110.719C97.9986 110.938 97.7893 111.095 97.5801 111.252C97.1388 111.565 96.68 111.898 96.2416 112.315C96.0375 112.492 95.8055 112.649 95.5962 112.806C95.0617 113.198 94.5272 113.59 93.9876 113.962C93.6396 114.196 93.3166 114.349 92.9635 114.563C92.7491 114.699 92.5472 114.795 92.3328 114.931C91.4225 115.536 90.5092 116.039 89.6159 116.439C88.7629 116.82 87.8923 117.221 87.0217 117.622C85.9844 118.079 84.9722 118.455 83.9446 118.769C83.3413 118.974 82.7453 119.117 82.1595 119.302C81.4248 119.523 80.6975 119.683 79.9702 119.842C79.6898 119.894 79.4095 119.946 79.124 119.977C77.9013 120.14 76.6838 120.324 75.4611 120.487C74.5012 120.618 73.5537 120.708 72.6239 120.779C72.2929 120.808 71.9869 120.757 71.6736 120.766C70.1853 120.858 68.742 120.767 67.389 120.494C66.2282 120.269 65.0623 120.023 63.9868 119.595C63.4858 119.393 62.9847 119.191 62.5013 118.969C62.0457 118.768 61.5953 118.588 61.1522 118.347C60.6534 118.062 60.1546 117.778 59.6735 117.474C58.9341 117.037 58.255 116.479 57.5883 115.881C56.7443 115.112 55.8826 114.363 55.1641 113.373C54.6817 112.699 54.1516 112.105 53.6567 111.472C52.8979 110.501 52.1516 109.489 51.536 108.276C51.4547 108.13 51.3609 108.024 51.2846 107.898C51.2414 107.814 51.168 107.791 51.1424 107.687C50.7908 106.812 50.3135 106.159 49.9142 105.365C49.3902 104.34 48.8787 103.275 48.4025 102.169C48.204 101.731 48.0407 101.253 47.8598 100.795C47.7807 100.566 47.6715 100.398 47.5924 100.169C47.4957 99.9606 47.4217 99.7526 47.3426 99.5239C47.317 99.4203 47.2914 99.3168 47.2481 99.2331C47.0092 98.814 46.8408 98.3151 46.7076 97.7764C46.6257 97.4449 46.5312 97.1541 46.4492 96.8226C46.3929 96.5947 46.3241 96.4074 46.2677 96.1795C46.2165 95.9723 46.13 95.805 46.1016 95.5986C45.9957 94.8965 45.784 94.314 45.5371 93.7713C45.4734 93.6048 45.4148 93.459 45.3687 93.2725C45.2326 92.631 45.0614 92.0294 44.8196 91.5075C44.7382 91.3609 44.6995 91.113 44.7063 90.8668C44.7028 90.5791 44.6766 90.2906 44.6152 90.042C44.4638 89.3383 44.2947 88.6546 44.161 87.931C44.0477 87.2903 43.9696 86.6098 43.9444 85.8695C43.9381 85.479 43.8738 85.1275 43.8146 84.7968C43.686 84.0939 43.5397 83.411 43.4059 82.6874C43.3621 82.4189 43.3234 82.171 43.408 81.7837C43.6013 81.3796 43.8759 81.1221 44.1432 80.926C44.4508 80.7108 44.73 80.289 45.0325 80.053C45.1434 79.9542 45.2514 79.7526 45.3696 79.5924C45.6135 79.2105 45.8625 78.8495 46.165 78.6135C46.4095 78.4166 46.6006 78.0945 46.7916 77.7725C47.1134 77.2496 47.4608 76.8303 47.8691 76.4748C48.188 75.8491 48.5553 75.3278 48.9834 74.8703C49.2831 74.5315 49.5901 74.1313 49.8591 73.6682C50.0148 73.386 50.2035 73.1461 50.4026 72.9476C50.6368 72.7093 50.8432 72.4494 51.0292 72.1067C51.2628 71.6834 51.5169 71.343 51.7938 71.0035C51.9348 70.844 52.0707 70.6639 52.1839 70.4829C52.3448 70.2215 52.4624 69.8764 52.6512 69.6365C52.8348 69.3758 53.006 69.1558 53.1617 68.8736C53.388 68.5118 53.6473 68.1921 53.8736 67.8303C54.1476 67.3879 54.4268 66.9662 54.7492 66.6282C54.8595 66.3444 54.9749 66.0814 55.0976 65.757C55.5178 65.176 55.9328 64.5742 56.3655 63.9525C56.4661 63.8122 56.544 63.6711 56.6168 63.5093C56.8953 62.9027 57.2171 62.3798 57.6049 61.9414C57.8869 61.6225 58.0978 61.1985 58.3315 60.7753C58.5049 60.4732 58.6783 60.1711 58.8466 59.8483C58.9546 59.6466 59.0802 59.425 59.1427 59.2218C59.2604 58.8767 59.4338 58.5746 59.5845 58.2717C59.7402 57.9895 59.8909 57.6867 60.0466 57.4045C60.2678 57.0219 60.4713 56.6593 60.788 56.1157C60.8306 56.0144 60.9409 55.7307 61.0086 55.5482C61.24 55.207 61.4185 54.9257 61.6146 54.6244C61.8801 53.8736 62.2951 53.2718 62.6618 52.5656C62.7243 52.3623 62.7817 52.1383 62.8266 51.955C63.0904 51.4712 63.3542 50.9874 63.6305 50.4629C63.7817 50.345 63.925 50.1034 64.0581 49.8205C64.3241 49.2546 64.5901 48.6887 64.8613 48.1435C65.0847 47.6789 65.2399 47.2118 65.3268 46.7424C65.6589 46.2609 65.9175 45.7564 66.1887 45.2112C66.5326 44.5042 66.8714 43.7765 67.2102 43.0488C67.4763 42.4829 67.6463 41.8931 67.7604 41.2603C67.8736 41.0794 67.9816 40.8777 68.0998 40.7175C68.3187 40.417 68.487 40.0942 68.6172 39.7085C68.7223 39.404 68.8224 39.0788 68.9276 38.7743C69.1754 38.0435 69.4232 37.3126 69.828 36.6693C69.9235 36.5083 70.0036 36.2852 70.0713 36.1027C70.2918 35.5352 70.4948 34.9876 70.7204 34.4409C71.1291 33.4485 71.51 32.4347 71.7367 31.4361C71.7617 31.3548 71.7816 31.2528 71.8118 31.1922C72.0852 30.565 72.217 29.9122 72.4626 29.2635C72.5427 29.0403 72.6229 28.8171 72.6575 28.5924C72.7371 28.1843 72.8723 27.8193 72.9974 27.4128C73.1099 27.047 73.2224 26.6812 73.2719 26.3337C73.3514 25.9256 73.4486 25.4976 73.5913 25.0712C73.9068 24.1578 74.0505 23.2796 74.1993 22.422C74.2317 22.2794 74.2237 22.1559 74.2788 22.014C74.4488 21.4242 74.5204 20.8926 74.4759 20.4392C74.4679 20.3157 74.5003 20.173 74.5151 20.0503C74.6639 19.1927 74.8179 18.3559 75.0298 17.48C75.2469 16.6249 75.2394 15.8646 75.179 15.1641C75.1477 14.8549 75.0936 14.5449 75.0219 14.2548C74.9553 13.9855 74.9291 13.697 74.9734 13.3288C75.0575 12.7566 75.0079 12.2824 74.9356 11.8075C74.8172 11.146 74.6584 10.5038 74.4041 10.0225C74.1725 9.542 73.8932 9.14205 73.5963 8.76199C73.127 8.23218 72.6401 7.72227 72.201 7.13187C72.036 6.92073 71.8285 6.81079 71.5907 6.76145C70.9407 6.59508 70.1957 6.77463 69.4911 6.93503C69.1431 7.16943 68.9095 7.59267 68.6934 7.99599C68.106 8.44802 67.6744 8.6179 67.1285 8.59894C66.6087 8.86846 66.097 9.26151 65.5778 9.71592C65.3561 9.91362 65.1167 10.1312 64.8876 10.3903C64.6937 10.6095 64.5123 10.7881 64.3053 10.8631C64.0579 10.9572 63.8237 11.1955 63.5872 11.516C63.1192 12.1776 62.6257 12.7356 62.0883 13.025C61.7301 13.218 61.3821 13.4524 60.9789 13.8286C60.8306 14.0494 60.6645 14.2902 60.4985 14.5309C60.2011 14.7876 59.9214 15.0243 59.6336 15.1376C59.467 15.1934 59.3209 15.3321 59.1623 15.5115C58.8626 15.8503 58.5704 16.1277 58.2912 16.5494C58.2435 16.6299 58.1957 16.7104 58.1377 16.7494C57.6311 17.1632 57.2519 17.91 56.809 18.4903C56.7913 18.5103 56.7737 18.5302 56.7561 18.5501C56.4673 19.1152 56.092 19.513 55.7344 19.8909C55.6991 19.9307 55.669 19.9913 55.5382 20.1922C55.5257 20.2328 55.4507 20.4767 55.3631 20.7613C55.3808 20.7413 55.3455 20.7812 55.3279 20.8011C55.1693 20.9805 55.0282 21.1399 54.8747 21.34C54.7036 21.56 54.5654 21.8222 54.3892 22.0215C54.0895 22.3603 53.8735 22.7636 53.7814 23.2123C53.6382 23.4538 53.5074 23.6547 53.359 23.8755C53.1901 24.0134 53.0389 24.1314 52.8524 24.2892C52.762 24.4709 52.654 24.6726 52.5511 24.895C52.4533 25.1381 52.3379 25.4011 52.2578 25.6243C52.085 26.1113 51.8792 26.556 51.5341 26.8932C51.0509 28.3143 50.2612 29.4987 49.6279 30.586C49.2772 31.5392 48.9992 32.3307 48.6808 33.1412C48.6007 33.3644 48.4751 33.586 48.3619 33.7669C48.1004 34.1686 47.9122 34.5935 47.7974 35.0414C47.6701 35.53 47.4695 35.9954 47.1903 36.4171C46.8935 36.8586 46.7207 37.3456 46.6668 37.8573C46.6202 38.3076 46.4702 38.7954 46.315 39.2624C46.2224 39.5262 46.1246 39.7693 45.9762 39.9901C45.6493 40.4922 45.464 41.0199 45.2941 41.6096C45.0917 42.3421 44.907 43.0546 44.6137 43.7839C44.4733 44.1282 44.396 44.4542 44.3819 44.7618C44.3683 45.2543 44.2638 45.7437 44.0205 46.3103C43.747 46.9376 43.6203 47.6111 43.501 48.2232C43.3317 48.9978 43.1851 49.7733 42.9526 50.5663C42.7526 51.2167 42.5525 51.867 42.5418 52.4623C42.5299 52.6879 42.46 52.9525 42.4077 53.1971C42.2884 53.8092 42.1867 54.4014 42.0043 55.0318C41.8343 55.6216 41.7628 56.1532 41.7441 56.625C41.4587 57.4778 41.3804 58.2556 41.2969 59.0127C41.2283 59.6471 41.1192 60.3006 41.1312 60.8967C41.1392 61.0202 41.0994 61.2243 41.067 61.3669C40.8721 62.038 40.879 62.6134 40.8456 63.2079C40.8359 63.3514 40.8388 63.4542 40.8468 63.5777C40.9157 64.5866 40.8335 65.7135 40.7109 66.8595C40.6961 66.9822 40.6865 67.1257 40.6541 67.2684C40.5143 67.7976 40.5081 68.2287 40.449 68.7196C40.3412 69.7429 40.4602 70.5892 40.5036 71.4946C40.5326 71.8858 40.5265 72.317 40.5379 72.7282C40.5567 73.078 40.5807 73.4486 40.5819 73.8184C40.5876 74.024 40.5984 74.2503 40.5865 74.4759C40.5088 75.4386 40.6176 76.2434 40.6331 77.1272C40.6474 77.6412 40.7322 78.0756 40.7869 78.5704C40.626 78.8319 40.634 78.9554 40.6243 79.0989ZM42.9061 76.6516C42.7366 76.6046 42.6831 76.4795 42.6825 76.2946C42.699 75.9049 42.7381 75.516 42.7546 75.1263C42.7761 74.7573 42.8153 74.3684 42.7663 74.0791C42.6428 73.397 42.6176 72.6566 42.5925 71.9163C42.5884 71.4437 42.5491 71.011 42.545 70.5384C42.5358 70.0451 42.5494 69.5526 42.5755 69.0194C42.6237 68.3022 42.6088 67.6033 42.7377 66.8477C42.8048 66.4803 42.7859 66.1305 42.8075 65.7615C42.8245 65.5567 42.7784 65.3702 42.8182 65.1662C42.9074 64.6147 42.9209 64.1222 42.9697 63.5898C43.0134 63.0367 43.0799 62.4844 43.1412 61.9114C43.1332 61.7879 43.0194 61.7839 43.1098 61.6022C43.165 61.4603 43.2201 61.3185 43.2349 61.1957C43.3161 60.5207 43.42 59.8465 43.4836 59.1914C43.5568 58.3928 43.6755 57.5959 43.8699 56.7399C43.9221 56.4952 43.9745 56.2505 44.0216 55.9851C44.1307 55.3316 44.2398 54.6781 44.3665 54.0046C44.6773 52.4338 45.1143 50.8263 45.4882 49.2371C45.6354 48.6465 45.8281 48.0575 45.998 47.4677C46.1754 46.8166 46.3123 46.1846 46.6187 45.5995C46.713 45.0688 46.7999 44.5993 46.892 44.1506C47.0113 43.5385 47.2216 42.9296 47.5053 42.3438C47.6082 42.1214 47.6707 41.9182 47.7508 41.695C47.9111 41.2487 48.0714 40.8023 48.2317 40.356C48.3369 40.0515 48.4648 39.7479 48.5699 39.4434C48.7979 38.8146 49.0207 38.165 49.2663 37.5162C49.6272 36.6044 50.0109 35.6934 50.377 34.8023C50.4623 34.5999 50.5475 34.3974 50.6431 34.2364C50.9825 33.6936 51.2155 33.0855 51.4713 32.4782C51.5691 32.2351 51.6845 31.9721 51.8102 31.7505C52.4406 30.5605 53.0154 29.3274 53.6965 28.1597C54.5157 26.7297 55.2968 25.2369 56.182 23.8914C56.6573 23.1684 57.1173 22.3833 57.6637 21.7655C57.9634 21.4267 58.2323 20.9636 58.5063 20.5212C58.5717 20.4208 58.6165 20.2375 58.6467 20.1769C58.7803 20.0789 58.9066 20.0421 59.0299 19.9026C59.2642 19.6643 59.4655 19.3837 59.6946 19.1246C59.818 18.9851 59.9311 18.8042 60.0471 18.7261C60.5185 18.3522 60.9592 17.854 61.4226 17.3566C61.7802 16.9787 62.1254 16.6414 62.4808 16.3457C62.8589 16.0507 63.2216 15.6936 63.5946 15.3779C64.1314 14.9036 64.6682 14.4292 65.1925 13.9955C65.5479 13.6998 65.9135 13.4454 66.274 13.1704C67.484 12.2264 67.5824 12.1682 68.9397 11.4554C69.1592 11.3398 69.4088 11.1636 69.6306 10.9659C69.8347 10.7881 70.0264 10.651 70.2158 10.5959C70.4506 10.5425 70.7104 10.4077 70.9453 10.3543C71.7938 10.1372 71.7938 10.1372 72.3387 10.608C72.3666 10.6295 72.3768 10.671 72.3922 10.7332C72.27 11.2424 72.2968 11.7158 72.4066 12.0688C72.4476 12.2345 72.4482 12.4195 72.4539 12.6251C72.4586 13.2825 72.37 14.0189 72.3974 14.6772C72.4191 15.1298 72.4408 15.5825 72.2026 16.1699C72.1901 16.2105 72.1827 16.2719 72.1754 16.3333C72.0737 16.9254 71.9947 17.5183 71.8754 18.1304C71.8209 18.4572 71.7487 18.8039 71.6487 19.1291C71.4486 19.7795 71.3293 20.3915 71.301 21.0068C71.2846 21.3965 71.205 21.8045 71.1431 22.1927C71.01 22.4756 70.8895 22.7179 70.7866 22.9403C70.7071 23.3483 70.64 23.7158 70.4695 24.1207C70.4269 24.2219 70.3894 24.3438 70.3746 24.4666C70.3303 24.8347 70.195 25.1998 70.0774 25.5449C69.8722 26.1745 69.6567 26.7627 69.4743 27.3932C69.3169 27.9423 69.119 28.5106 68.8706 29.0566C68.7677 29.2789 68.7103 29.5029 68.6302 29.726C68.3772 30.4362 68.1573 31.1886 67.8361 31.8963C67.6605 32.2805 67.4951 32.7061 67.3979 33.1341C67.3581 33.3381 67.2603 33.5812 67.1574 33.8036C66.6634 34.9983 66.1746 36.2138 65.7818 37.4531C65.7693 37.4938 65.7443 37.5751 65.7142 37.6357C65.518 37.937 65.4231 38.2828 65.2776 38.6065C65.1196 38.9707 64.9792 39.315 64.7933 39.6577C64.5898 40.0204 64.4089 40.3839 64.2611 40.7896C64.0332 41.4184 63.7444 41.9835 63.4556 42.5486C63.0463 43.356 62.6979 44.2272 62.2328 44.9916C62.1549 45.1327 62.0872 45.3152 62.0145 45.477C61.5631 46.5706 61.0435 47.6617 60.4807 48.6692C60.2647 49.0725 60.089 49.4567 59.9185 49.8616C59.6928 50.4084 59.4392 50.9336 59.13 51.4158C58.9514 51.6972 58.7831 52.02 58.6376 52.3436C58.462 52.7278 58.2761 53.0705 58.0447 53.4116C57.8486 53.7129 57.6626 54.0557 57.4767 54.3984C57.2658 54.8225 57.0776 55.2473 56.8718 55.6921C56.6609 56.1161 56.45 56.5401 56.1783 56.9004C56.0776 57.0407 55.9793 57.0989 55.8735 57.2185C55.7882 57.4209 55.7206 57.6034 55.6353 57.8059C55.4818 58.006 55.3283 58.206 55.2754 58.2658C54.6603 59.518 54.1231 60.6291 53.3828 61.4661C53.2446 61.7283 53.1469 61.9714 53.0213 62.193C52.8302 62.515 52.6113 62.8156 52.4203 63.1376C52.2116 63.4795 52.036 63.8636 51.8222 64.1849C51.5431 64.6065 51.2309 64.986 50.9466 65.3869C50.7453 65.6675 50.5264 65.968 50.3405 66.3107C49.788 67.3597 49.0931 68.1983 48.4973 69.1636C47.6894 70.1831 46.9298 71.307 46.0911 72.2022C46.003 72.3018 45.92 72.4222 45.837 72.5425C45.6597 73.1937 45.3453 73.6552 44.937 74.0107C44.8614 74.0697 44.796 74.1702 44.7204 74.2292C44.4913 74.4882 44.2848 74.7481 44.0989 75.0909C43.8175 75.5946 43.4599 75.9724 43.1125 76.3917C43.1608 76.4961 43.017 76.5527 42.9061 76.6516ZM150.911 40.6156C150.973 40.4124 151.048 40.1685 151.111 39.9653C151.329 39.295 151.524 38.6239 151.764 37.9544C151.937 37.4674 152.105 36.9597 152.368 36.4759C152.589 36.0933 152.737 35.6876 152.852 35.2397C152.917 34.9544 153.04 34.63 153.14 34.3049C153.527 33.0448 154.057 31.8102 154.421 30.5493C154.459 30.4274 154.502 30.3261 154.544 30.2249C154.679 29.8599 154.837 29.4957 154.95 29.1298C155.193 28.3783 155.435 27.6267 155.751 26.8982C155.867 26.6352 155.954 26.3506 156.052 26.1075C156.284 25.9512 156.353 26.1385 156.412 26.2843C156.521 26.6373 156.619 27.031 156.693 27.4238C156.807 28.0645 156.774 28.844 156.927 29.4655C156.943 29.5277 156.941 29.6098 156.933 29.6711C156.963 30.2473 156.952 30.8426 157.017 31.3789C157.077 31.8945 157.049 32.5098 157.204 32.8644C157.182 33.2334 157.145 33.5402 157.149 33.8279C157.149 34.6495 157.051 35.5293 157.127 36.292C157.132 36.3127 157.119 36.3534 157.124 36.3741C157.071 37.0706 157.088 37.6875 157.146 38.2852C157.237 39.11 157.252 39.9937 157.432 40.7189C157.488 40.9468 157.504 41.1939 157.525 41.4616C157.538 41.6059 157.493 41.7891 157.37 41.9286C157.211 42.108 157.087 42.0626 156.968 42.038C156.157 41.9482 155.345 41.8583 154.546 41.7279C154.291 41.6985 154.073 41.5471 153.793 41.599C153.747 41.5974 153.714 41.5552 153.669 41.5536C153.143 41.4326 152.629 41.271 152.085 41.17C151.683 41.0944 151.349 40.8362 150.989 40.6594C150.942 40.7399 150.931 40.6985 150.911 40.6156ZM147.446 39.7352C147.264 39.7289 147.132 39.7449 147.019 39.741C146.634 39.6455 146.25 39.5499 145.888 39.4552C145.6 39.3836 145.311 39.3119 145.018 39.2195C144.826 39.1718 144.646 39.0834 144.537 38.9153C144.457 38.5017 144.645 38.0769 144.894 37.7158C145.44 36.9131 145.874 36.0244 146.387 35.1795C146.87 34.3952 147.264 33.5256 147.807 32.805C148.531 31.536 149.303 30.3715 150.098 29.2078C150.46 28.6658 150.832 28.1652 151.2 27.6439C151.336 27.4637 151.502 27.223 151.689 27.25C151.727 27.4978 151.731 27.7856 151.613 28.1307C151.428 28.6583 151.248 29.2066 151.063 29.7342C150.982 29.9574 150.897 30.1598 150.84 30.3838C150.7 30.913 150.537 31.4414 150.279 31.9459C150.218 32.0671 150.168 32.2297 150.113 32.3716C149.81 33.2443 149.525 34.0971 149.24 34.9499C149.184 35.0918 149.129 35.2336 149.074 35.3755C148.864 35.9844 148.636 36.6133 148.426 37.2222C148.29 37.5873 148.178 37.9531 148.043 38.3181C147.842 38.7836 147.654 39.2084 147.446 39.7352Z" fill="#FFBE15"/>
</svg>
