<svg width="84" height="20" viewBox="0 0 84 20" fill="none" xmlns="http://www.w3.org/2000/svg">
<path d="M7.09045 19.3955C2.96158 19.3955 0.333984 17.2154 0.333984 12.8417V6.28411H1.83525V12.8417C1.83525 16.1201 3.71222 17.9416 7.09045 17.9416H15.349C18.7272 17.9416 20.6042 16.1201 20.6042 12.8417V6.28411H22.1062V12.8417C22.1062 17.2132 19.4786 19.3986 15.349 19.3986L7.09045 19.3955ZM37.8718 19.3955H22.1062V17.9416H37.8718C41.25 17.9416 43.127 16.1201 43.127 12.8417V7.74328H25.8601V6.13902L33.4424 0.601562L34.2681 1.84046L28.0369 6.28411H44.629V12.8417C44.629 17.2154 42.0014 19.3955 37.8718 19.3955ZM61.521 19.3955H53.6382V17.9416H61.521V19.3955ZM70.1544 17.9386H76.9116C80.2899 17.9386 82.1668 16.1171 82.1668 12.8387C82.1668 9.56028 80.2899 7.74328 76.9116 7.74328H70.9042V6.28411H76.9109C81.0397 6.28411 83.6673 8.47023 83.6673 12.8417C83.6673 17.2132 81.0405 19.3955 76.9116 19.3955H70.1544V17.9386ZM6.71552 6.28411H15.7247V7.74328H6.71552V6.28411ZM61.521 7.74328H51.7604V12.8432C51.7612 17.2154 49.5085 19.3955 45.3797 19.3955V17.9416C48.3822 17.9416 50.2599 16.1201 50.2599 12.8417V6.28411H61.521V7.74328ZM66.7762 4.82871V19.3955H65.2749V4.8272L66.7762 4.82871Z" fill="#FAFAFA"/>
</svg>
