<svg width="24" height="25" viewBox="0 0 24 25" fill="none" xmlns="http://www.w3.org/2000/svg">
<path opacity="0.4" d="M19.1197 9.80932C18.7297 9.80932 18.4197 10.1193 18.4197 10.5093V12.0893C18.4197 15.6293 15.5397 18.5093 11.9997 18.5093C8.45969 18.5093 5.57969 15.6293 5.57969 12.0893V10.4993C5.57969 10.1093 5.26969 9.79932 4.87969 9.79932C4.48969 9.79932 4.17969 10.1093 4.17969 10.4993V12.0793C4.17969 16.1493 7.30969 19.4993 11.2997 19.8593V21.9893C11.2997 22.3793 11.6097 22.6893 11.9997 22.6893C12.3897 22.6893 12.6997 22.3793 12.6997 21.9893V19.8593C16.6797 19.5093 19.8197 16.1493 19.8197 12.0793V10.4993C19.8097 10.1193 19.4997 9.80932 19.1197 9.80932Z" fill="#292D35"/>
<path d="M12.0001 2.68945C9.56008 2.68945 7.58008 4.66945 7.58008 7.10945V12.2295C7.58008 14.6695 9.56008 16.6495 12.0001 16.6495C14.4401 16.6495 16.4201 14.6695 16.4201 12.2295V7.10945C16.4201 4.66945 14.4401 2.68945 12.0001 2.68945ZM13.3101 9.63945C13.2401 9.89945 13.0101 10.0695 12.7501 10.0695C12.7001 10.0695 12.6501 10.0595 12.6001 10.0495C12.2101 9.93945 11.8001 9.93945 11.4101 10.0495C11.0901 10.1395 10.7801 9.94945 10.7001 9.63945C10.6101 9.32945 10.8001 9.00945 11.1101 8.92945C11.7001 8.76945 12.3201 8.76945 12.9101 8.92945C13.2101 9.00945 13.3901 9.32945 13.3101 9.63945ZM13.8401 7.69945C13.7501 7.93945 13.5301 8.07945 13.2901 8.07945C13.2201 8.07945 13.1601 8.06945 13.0901 8.04945C12.3901 7.78945 11.6101 7.78945 10.9101 8.04945C10.6101 8.15945 10.2701 7.99945 10.1601 7.69945C10.0501 7.39945 10.2101 7.05945 10.5101 6.95945C11.4701 6.60945 12.5301 6.60945 13.4901 6.95945C13.7901 7.06945 13.9501 7.39945 13.8401 7.69945Z" fill="#292D35"/>
</svg>
